<mxfile host="65bd71144e" pages="4">
    <diagram id="fZ525zsU8lHku2e23gx0" name="ORDER_FACTS">
        <mxGraphModel dx="1769" dy="1598" grid="0" gridSize="10" guides="1" tooltips="1" connect="1" arrows="1" fold="1" page="1" pageScale="1" pageWidth="827" pageHeight="1169" math="0" shadow="0">
            <root>
                <mxCell id="0"/>
                <mxCell id="1" parent="0"/>
                <mxCell id="kCiKHfgYfUaN6RclirfY-14" style="rounded=0;orthogonalLoop=1;jettySize=auto;html=1;" parent="1" source="kCiKHfgYfUaN6RclirfY-8" target="kCiKHfgYfUaN6RclirfY-12" edge="1">
                    <mxGeometry relative="1" as="geometry"/>
                </mxCell>
                <mxCell id="6WT5wc-0vURUCLeDaOVr-12" style="edgeStyle=none;html=1;fontColor=#FFFF33;" parent="1" source="kCiKHfgYfUaN6RclirfY-8" target="6WT5wc-0vURUCLeDaOVr-7" edge="1">
                    <mxGeometry relative="1" as="geometry"/>
                </mxCell>
                <mxCell id="jDhqt4TW9-ExgR0FoPD2-16" style="rounded=0;orthogonalLoop=1;jettySize=auto;html=1;" parent="1" source="kCiKHfgYfUaN6RclirfY-8" target="6qjix66qwmuikr4LNFUZ-4" edge="1">
                    <mxGeometry relative="1" as="geometry">
                        <mxPoint x="289.9566835134715" y="396.55806538285833" as="targetPoint"/>
                    </mxGeometry>
                </mxCell>
                <mxCell id="kCiKHfgYfUaN6RclirfY-8" value="FACT_ORDER" style="swimlane;fontStyle=0;childLayout=stackLayout;horizontal=1;startSize=30;horizontalStack=0;resizeParent=1;resizeParentMax=0;resizeLast=0;collapsible=1;marginBottom=0;whiteSpace=wrap;html=1;" parent="1" vertex="1">
                    <mxGeometry x="350" y="383" width="140" height="179" as="geometry"/>
                </mxCell>
                <mxCell id="jVg0lap7aCjxCOdSCuPh-6" value="standard_cost" style="text;strokeColor=none;fillColor=none;align=left;verticalAlign=middle;spacingLeft=4;spacingRight=4;overflow=hidden;points=[[0,0.5],[1,0.5]];portConstraint=eastwest;rotatable=0;whiteSpace=wrap;html=1;" parent="kCiKHfgYfUaN6RclirfY-8" vertex="1">
                    <mxGeometry y="30" width="140" height="30" as="geometry"/>
                </mxCell>
                <mxCell id="jVg0lap7aCjxCOdSCuPh-5" value="unit_price" style="text;strokeColor=none;fillColor=none;align=left;verticalAlign=middle;spacingLeft=4;spacingRight=4;overflow=hidden;points=[[0,0.5],[1,0.5]];portConstraint=eastwest;rotatable=0;whiteSpace=wrap;html=1;" parent="kCiKHfgYfUaN6RclirfY-8" vertex="1">
                    <mxGeometry y="60" width="140" height="30" as="geometry"/>
                </mxCell>
                <mxCell id="2" value="quantity" style="text;strokeColor=none;fillColor=none;align=left;verticalAlign=middle;spacingLeft=4;spacingRight=4;overflow=hidden;points=[[0,0.5],[1,0.5]];portConstraint=eastwest;rotatable=0;whiteSpace=wrap;html=1;" parent="kCiKHfgYfUaN6RclirfY-8" vertex="1">
                    <mxGeometry y="90" width="140" height="30" as="geometry"/>
                </mxCell>
                <mxCell id="jDhqt4TW9-ExgR0FoPD2-5" value="total_amount" style="text;strokeColor=none;fillColor=none;align=left;verticalAlign=middle;spacingLeft=4;spacingRight=4;overflow=hidden;points=[[0,0.5],[1,0.5]];portConstraint=eastwest;rotatable=0;whiteSpace=wrap;html=1;" parent="kCiKHfgYfUaN6RclirfY-8" vertex="1">
                    <mxGeometry y="120" width="140" height="30" as="geometry"/>
                </mxCell>
                <mxCell id="jDhqt4TW9-ExgR0FoPD2-4" value="profit" style="text;strokeColor=none;fillColor=none;align=left;verticalAlign=middle;spacingLeft=4;spacingRight=4;overflow=hidden;points=[[0,0.5],[1,0.5]];portConstraint=eastwest;rotatable=0;whiteSpace=wrap;html=1;" parent="kCiKHfgYfUaN6RclirfY-8" vertex="1">
                    <mxGeometry y="150" width="140" height="29" as="geometry"/>
                </mxCell>
                <mxCell id="kCiKHfgYfUaN6RclirfY-16" value="" style="rounded=0;orthogonalLoop=1;jettySize=auto;html=1;" parent="1" source="kCiKHfgYfUaN6RclirfY-12" target="kCiKHfgYfUaN6RclirfY-15" edge="1">
                    <mxGeometry relative="1" as="geometry"/>
                </mxCell>
                <mxCell id="kCiKHfgYfUaN6RclirfY-19" style="edgeStyle=none;rounded=0;orthogonalLoop=1;jettySize=auto;html=1;" parent="1" source="kCiKHfgYfUaN6RclirfY-12" target="jVg0lap7aCjxCOdSCuPh-15" edge="1">
                    <mxGeometry relative="1" as="geometry">
                        <mxPoint x="626.9141945536496" y="304.6340710099221" as="targetPoint"/>
                    </mxGeometry>
                </mxCell>
                <mxCell id="3" style="edgeStyle=none;html=1;" parent="1" source="kCiKHfgYfUaN6RclirfY-12" target="4" edge="1">
                    <mxGeometry relative="1" as="geometry">
                        <mxPoint x="530" y="350" as="targetPoint"/>
                    </mxGeometry>
                </mxCell>
                <mxCell id="kCiKHfgYfUaN6RclirfY-12" value="product" style="ellipse;whiteSpace=wrap;html=1;aspect=fixed;labelPosition=center;verticalLabelPosition=bottom;align=center;verticalAlign=top;" parent="1" vertex="1">
                    <mxGeometry x="540" y="402" width="30" height="30" as="geometry"/>
                </mxCell>
                <mxCell id="kCiKHfgYfUaN6RclirfY-15" value="category" style="ellipse;whiteSpace=wrap;html=1;aspect=fixed;labelPosition=center;verticalLabelPosition=bottom;align=center;verticalAlign=top;" parent="1" vertex="1">
                    <mxGeometry x="610" y="410" width="30" height="30" as="geometry"/>
                </mxCell>
                <mxCell id="kCiKHfgYfUaN6RclirfY-24" style="edgeStyle=none;rounded=0;orthogonalLoop=1;jettySize=auto;html=1;labelBackgroundColor=none;" parent="1" source="kCiKHfgYfUaN6RclirfY-20" target="kCiKHfgYfUaN6RclirfY-23" edge="1">
                    <mxGeometry relative="1" as="geometry"/>
                </mxCell>
                <mxCell id="jVg0lap7aCjxCOdSCuPh-17" value="" style="rounded=0;orthogonalLoop=1;jettySize=auto;html=1;endArrow=classic;endFill=1;startArrow=none;startFill=0;labelBackgroundColor=none;" parent="1" source="kCiKHfgYfUaN6RclirfY-20" target="jVg0lap7aCjxCOdSCuPh-22" edge="1">
                    <mxGeometry relative="1" as="geometry">
                        <mxPoint x="277" y="487" as="targetPoint"/>
                    </mxGeometry>
                </mxCell>
                <mxCell id="kCiKHfgYfUaN6RclirfY-20" value="customer" style="ellipse;whiteSpace=wrap;html=1;aspect=fixed;labelPosition=center;verticalLabelPosition=bottom;align=center;verticalAlign=top;labelBackgroundColor=none;" parent="1" vertex="1">
                    <mxGeometry x="262" y="567" width="30" height="30" as="geometry"/>
                </mxCell>
                <mxCell id="kCiKHfgYfUaN6RclirfY-21" style="rounded=0;orthogonalLoop=1;jettySize=auto;html=1;" parent="1" source="kCiKHfgYfUaN6RclirfY-8" target="kCiKHfgYfUaN6RclirfY-20" edge="1">
                    <mxGeometry relative="1" as="geometry">
                        <mxPoint x="500" y="477" as="sourcePoint"/>
                        <mxPoint x="550" y="477" as="targetPoint"/>
                    </mxGeometry>
                </mxCell>
                <mxCell id="kCiKHfgYfUaN6RclirfY-23" value="address" style="ellipse;whiteSpace=wrap;html=1;aspect=fixed;labelPosition=center;verticalLabelPosition=bottom;align=center;verticalAlign=top;labelBackgroundColor=none;" parent="1" vertex="1">
                    <mxGeometry x="157" y="567" width="30" height="30" as="geometry"/>
                </mxCell>
                <mxCell id="kCiKHfgYfUaN6RclirfY-28" value="" style="edgeStyle=none;rounded=0;orthogonalLoop=1;jettySize=auto;html=1;" parent="1" source="kCiKHfgYfUaN6RclirfY-25" target="kCiKHfgYfUaN6RclirfY-27" edge="1">
                    <mxGeometry relative="1" as="geometry"/>
                </mxCell>
                <mxCell id="tv-IUSlmNRJrjBp0QFXY-6" value="" style="edgeStyle=none;html=1;fontColor=#FFFFFF;" parent="1" source="kCiKHfgYfUaN6RclirfY-25" target="tv-IUSlmNRJrjBp0QFXY-5" edge="1">
                    <mxGeometry relative="1" as="geometry"/>
                </mxCell>
                <mxCell id="OM0KdPZbjFu7hwkOpfSF-5" value="" style="rounded=0;orthogonalLoop=1;jettySize=auto;html=1;fontColor=#000000;" parent="1" source="kCiKHfgYfUaN6RclirfY-25" target="OM0KdPZbjFu7hwkOpfSF-4" edge="1">
                    <mxGeometry relative="1" as="geometry"/>
                </mxCell>
                <mxCell id="kCiKHfgYfUaN6RclirfY-25" value="warehouse" style="ellipse;whiteSpace=wrap;html=1;aspect=fixed;labelPosition=center;verticalLabelPosition=bottom;align=center;verticalAlign=top;" parent="1" vertex="1">
                    <mxGeometry x="405" y="319" width="30" height="30" as="geometry"/>
                </mxCell>
                <mxCell id="kCiKHfgYfUaN6RclirfY-26" style="rounded=0;orthogonalLoop=1;jettySize=auto;html=1;" parent="1" source="kCiKHfgYfUaN6RclirfY-8" target="kCiKHfgYfUaN6RclirfY-25" edge="1">
                    <mxGeometry relative="1" as="geometry">
                        <mxPoint x="500" y="302" as="sourcePoint"/>
                        <mxPoint x="700" y="312" as="targetPoint"/>
                    </mxGeometry>
                </mxCell>
                <mxCell id="kCiKHfgYfUaN6RclirfY-30" value="" style="edgeStyle=none;rounded=0;orthogonalLoop=1;jettySize=auto;html=1;" parent="1" source="kCiKHfgYfUaN6RclirfY-27" target="kCiKHfgYfUaN6RclirfY-29" edge="1">
                    <mxGeometry relative="1" as="geometry"/>
                </mxCell>
                <mxCell id="kCiKHfgYfUaN6RclirfY-27" value="city" style="ellipse;whiteSpace=wrap;html=1;aspect=fixed;labelPosition=center;verticalLabelPosition=bottom;align=center;verticalAlign=top;" parent="1" vertex="1">
                    <mxGeometry x="405" y="249" width="30" height="30" as="geometry"/>
                </mxCell>
                <mxCell id="jVg0lap7aCjxCOdSCuPh-9" value="" style="edgeStyle=orthogonalEdgeStyle;rounded=0;orthogonalLoop=1;jettySize=auto;html=1;" parent="1" source="kCiKHfgYfUaN6RclirfY-29" target="jVg0lap7aCjxCOdSCuPh-8" edge="1">
                    <mxGeometry relative="1" as="geometry"/>
                </mxCell>
                <mxCell id="kCiKHfgYfUaN6RclirfY-29" value="state" style="ellipse;whiteSpace=wrap;html=1;aspect=fixed;labelPosition=center;verticalLabelPosition=bottom;align=center;verticalAlign=top;" parent="1" vertex="1">
                    <mxGeometry x="405" y="169" width="30" height="30" as="geometry"/>
                </mxCell>
                <mxCell id="jVg0lap7aCjxCOdSCuPh-10" value="" style="edgeStyle=orthogonalEdgeStyle;rounded=0;orthogonalLoop=1;jettySize=auto;html=1;endArrow=none;endFill=0;" parent="1" source="jVg0lap7aCjxCOdSCuPh-8" target="kCiKHfgYfUaN6RclirfY-29" edge="1">
                    <mxGeometry relative="1" as="geometry"/>
                </mxCell>
                <mxCell id="jVg0lap7aCjxCOdSCuPh-12" value="" style="edgeStyle=orthogonalEdgeStyle;rounded=0;orthogonalLoop=1;jettySize=auto;html=1;" parent="1" source="jVg0lap7aCjxCOdSCuPh-8" target="jVg0lap7aCjxCOdSCuPh-11" edge="1">
                    <mxGeometry relative="1" as="geometry"/>
                </mxCell>
                <mxCell id="jVg0lap7aCjxCOdSCuPh-8" value="country" style="ellipse;whiteSpace=wrap;html=1;aspect=fixed;labelPosition=center;verticalLabelPosition=bottom;align=center;verticalAlign=top;" parent="1" vertex="1">
                    <mxGeometry x="405" y="89" width="30" height="30" as="geometry"/>
                </mxCell>
                <mxCell id="jVg0lap7aCjxCOdSCuPh-11" value="region" style="ellipse;whiteSpace=wrap;html=1;aspect=fixed;labelPosition=center;verticalLabelPosition=bottom;align=center;verticalAlign=top;" parent="1" vertex="1">
                    <mxGeometry x="405" y="19" width="30" height="30" as="geometry"/>
                </mxCell>
                <mxCell id="jVg0lap7aCjxCOdSCuPh-15" value="description" style="text;html=1;strokeColor=none;fillColor=none;align=center;verticalAlign=middle;whiteSpace=wrap;rounded=0;labelPosition=center;verticalLabelPosition=middle;" parent="1" vertex="1">
                    <mxGeometry x="595" y="350" width="60" height="30" as="geometry"/>
                </mxCell>
                <mxCell id="jVg0lap7aCjxCOdSCuPh-22" value="credit_limit" style="text;html=1;strokeColor=none;fillColor=none;align=center;verticalAlign=middle;whiteSpace=wrap;rounded=0;labelBackgroundColor=none;fontStyle=0;fontColor=#000000;" parent="1" vertex="1">
                    <mxGeometry x="170" y="491" width="60" height="30" as="geometry"/>
                </mxCell>
                <mxCell id="jVg0lap7aCjxCOdSCuPh-24" value="" style="rounded=0;orthogonalLoop=1;jettySize=auto;html=1;endArrow=classic;endFill=1;startArrow=none;startFill=0;labelBackgroundColor=none;" parent="1" source="kCiKHfgYfUaN6RclirfY-20" target="jVg0lap7aCjxCOdSCuPh-25" edge="1">
                    <mxGeometry relative="1" as="geometry">
                        <mxPoint x="287" y="662" as="sourcePoint"/>
                        <mxPoint x="277" y="732" as="targetPoint"/>
                    </mxGeometry>
                </mxCell>
                <mxCell id="jVg0lap7aCjxCOdSCuPh-25" value="name" style="text;html=1;strokeColor=none;fillColor=none;align=center;verticalAlign=middle;whiteSpace=wrap;rounded=0;labelBackgroundColor=none;" parent="1" vertex="1">
                    <mxGeometry x="157" y="642" width="60" height="30" as="geometry"/>
                </mxCell>
                <mxCell id="jVg0lap7aCjxCOdSCuPh-26" value="" style="rounded=0;orthogonalLoop=1;jettySize=auto;html=1;endArrow=classic;endFill=1;startArrow=none;startFill=0;labelBackgroundColor=none;" parent="1" source="kCiKHfgYfUaN6RclirfY-20" target="jVg0lap7aCjxCOdSCuPh-27" edge="1">
                    <mxGeometry relative="1" as="geometry">
                        <mxPoint x="327" y="597" as="sourcePoint"/>
                        <mxPoint x="337" y="742" as="targetPoint"/>
                    </mxGeometry>
                </mxCell>
                <mxCell id="jVg0lap7aCjxCOdSCuPh-27" value="phone" style="text;html=1;strokeColor=none;fillColor=none;align=center;verticalAlign=middle;whiteSpace=wrap;rounded=0;labelBackgroundColor=none;" parent="1" vertex="1">
                    <mxGeometry x="247" y="652" width="60" height="30" as="geometry"/>
                </mxCell>
                <mxCell id="jVg0lap7aCjxCOdSCuPh-35" style="rounded=0;orthogonalLoop=1;jettySize=auto;html=1;" parent="1" source="kCiKHfgYfUaN6RclirfY-8" target="jVg0lap7aCjxCOdSCuPh-36" edge="1">
                    <mxGeometry relative="1" as="geometry">
                        <mxPoint x="422.92456782654085" y="547" as="sourcePoint"/>
                    </mxGeometry>
                </mxCell>
                <mxCell id="jVg0lap7aCjxCOdSCuPh-38" value="" style="edgeStyle=none;rounded=0;orthogonalLoop=1;jettySize=auto;html=1;labelBackgroundColor=none;startArrow=none;startFill=0;endArrow=classic;endFill=1;" parent="1" source="jVg0lap7aCjxCOdSCuPh-36" target="jVg0lap7aCjxCOdSCuPh-37" edge="1">
                    <mxGeometry relative="1" as="geometry"/>
                </mxCell>
                <mxCell id="jVg0lap7aCjxCOdSCuPh-40" value="" style="edgeStyle=none;rounded=0;orthogonalLoop=1;jettySize=auto;html=1;labelBackgroundColor=none;startArrow=none;startFill=0;endArrow=classic;endFill=1;" parent="1" source="jVg0lap7aCjxCOdSCuPh-36" target="jVg0lap7aCjxCOdSCuPh-39" edge="1">
                    <mxGeometry relative="1" as="geometry"/>
                </mxCell>
                <mxCell id="jVg0lap7aCjxCOdSCuPh-42" value="" style="edgeStyle=none;rounded=0;orthogonalLoop=1;jettySize=auto;html=1;labelBackgroundColor=none;startArrow=none;startFill=0;endArrow=classic;endFill=1;" parent="1" source="jVg0lap7aCjxCOdSCuPh-36" target="jVg0lap7aCjxCOdSCuPh-41" edge="1">
                    <mxGeometry relative="1" as="geometry"/>
                </mxCell>
                <mxCell id="DMe8NVaou7GC5DhqJavl-2" value="" style="edgeStyle=none;html=1;" parent="1" source="jVg0lap7aCjxCOdSCuPh-36" target="DMe8NVaou7GC5DhqJavl-1" edge="1">
                    <mxGeometry relative="1" as="geometry"/>
                </mxCell>
                <mxCell id="jVg0lap7aCjxCOdSCuPh-36" value="date" style="ellipse;whiteSpace=wrap;html=1;aspect=fixed;labelPosition=center;verticalLabelPosition=bottom;align=center;verticalAlign=top;" parent="1" vertex="1">
                    <mxGeometry x="405" y="660" width="30" height="30" as="geometry"/>
                </mxCell>
                <mxCell id="jVg0lap7aCjxCOdSCuPh-37" value="day" style="ellipse;whiteSpace=wrap;html=1;aspect=fixed;labelPosition=center;verticalLabelPosition=bottom;align=center;verticalAlign=top;" parent="1" vertex="1">
                    <mxGeometry x="295" y="700" width="30" height="30" as="geometry"/>
                </mxCell>
                <mxCell id="jVg0lap7aCjxCOdSCuPh-39" value="week" style="ellipse;whiteSpace=wrap;html=1;aspect=fixed;labelPosition=center;verticalLabelPosition=bottom;align=center;verticalAlign=top;" parent="1" vertex="1">
                    <mxGeometry x="470" y="705" width="30" height="30" as="geometry"/>
                </mxCell>
                <mxCell id="jVg0lap7aCjxCOdSCuPh-44" value="" style="edgeStyle=none;rounded=0;orthogonalLoop=1;jettySize=auto;html=1;labelBackgroundColor=none;startArrow=none;startFill=0;endArrow=classic;endFill=1;" parent="1" source="jVg0lap7aCjxCOdSCuPh-41" target="jVg0lap7aCjxCOdSCuPh-43" edge="1">
                    <mxGeometry relative="1" as="geometry"/>
                </mxCell>
                <mxCell id="jVg0lap7aCjxCOdSCuPh-41" value="month" style="ellipse;whiteSpace=wrap;html=1;aspect=fixed;labelPosition=center;verticalLabelPosition=bottom;align=center;verticalAlign=top;" parent="1" vertex="1">
                    <mxGeometry x="414" y="735" width="30" height="30" as="geometry"/>
                </mxCell>
                <mxCell id="jVg0lap7aCjxCOdSCuPh-46" value="" style="edgeStyle=none;rounded=0;orthogonalLoop=1;jettySize=auto;html=1;labelBackgroundColor=none;startArrow=none;startFill=0;endArrow=classic;endFill=1;" parent="1" source="jVg0lap7aCjxCOdSCuPh-43" target="jVg0lap7aCjxCOdSCuPh-45" edge="1">
                    <mxGeometry relative="1" as="geometry"/>
                </mxCell>
                <mxCell id="jVg0lap7aCjxCOdSCuPh-43" value="quarter" style="ellipse;whiteSpace=wrap;html=1;aspect=fixed;labelPosition=center;verticalLabelPosition=bottom;align=center;verticalAlign=top;" parent="1" vertex="1">
                    <mxGeometry x="414" y="815" width="30" height="30" as="geometry"/>
                </mxCell>
                <mxCell id="jVg0lap7aCjxCOdSCuPh-45" value="year" style="ellipse;whiteSpace=wrap;html=1;aspect=fixed;labelPosition=center;verticalLabelPosition=bottom;align=center;verticalAlign=top;" parent="1" vertex="1">
                    <mxGeometry x="414" y="885" width="30" height="30" as="geometry"/>
                </mxCell>
                <mxCell id="DMe8NVaou7GC5DhqJavl-1" value="holiday" style="ellipse;whiteSpace=wrap;html=1;aspect=fixed;labelPosition=center;verticalLabelPosition=bottom;align=center;verticalAlign=top;" parent="1" vertex="1">
                    <mxGeometry x="350" y="735" width="30" height="30" as="geometry"/>
                </mxCell>
                <mxCell id="6WT5wc-0vURUCLeDaOVr-4" style="edgeStyle=none;html=1;fontColor=#FFFF33;" parent="1" source="6WT5wc-0vURUCLeDaOVr-7" target="6WT5wc-0vURUCLeDaOVr-9" edge="1">
                    <mxGeometry relative="1" as="geometry"/>
                </mxCell>
                <mxCell id="6WT5wc-0vURUCLeDaOVr-5" value="" style="edgeStyle=none;html=1;fontColor=#FFFF33;" parent="1" source="6WT5wc-0vURUCLeDaOVr-7" target="6WT5wc-0vURUCLeDaOVr-10" edge="1">
                    <mxGeometry relative="1" as="geometry"/>
                </mxCell>
                <mxCell id="6WT5wc-0vURUCLeDaOVr-6" value="" style="edgeStyle=none;html=1;fontColor=#FFFF33;" parent="1" source="6WT5wc-0vURUCLeDaOVr-7" target="6WT5wc-0vURUCLeDaOVr-11" edge="1">
                    <mxGeometry relative="1" as="geometry"/>
                </mxCell>
                <mxCell id="6WT5wc-0vURUCLeDaOVr-7" value="employee" style="ellipse;whiteSpace=wrap;html=1;aspect=fixed;labelPosition=center;verticalLabelPosition=bottom;align=center;verticalAlign=top;" parent="1" vertex="1">
                    <mxGeometry x="540" y="528" width="30" height="30" as="geometry"/>
                </mxCell>
                <mxCell id="6WT5wc-0vURUCLeDaOVr-9" value="name" style="text;html=1;strokeColor=none;fillColor=none;align=center;verticalAlign=middle;whiteSpace=wrap;rounded=0;labelBackgroundColor=none;" parent="1" vertex="1">
                    <mxGeometry x="627" y="502" width="60" height="30" as="geometry"/>
                </mxCell>
                <mxCell id="6WT5wc-0vURUCLeDaOVr-10" value="hire date" style="ellipse;whiteSpace=wrap;html=1;aspect=fixed;labelPosition=center;verticalLabelPosition=bottom;align=center;verticalAlign=top;" parent="1" vertex="1">
                    <mxGeometry x="580" y="598" width="30" height="30" as="geometry"/>
                </mxCell>
                <mxCell id="6WT5wc-0vURUCLeDaOVr-11" value="manager" style="ellipse;whiteSpace=wrap;html=1;aspect=fixed;labelPosition=center;verticalLabelPosition=bottom;align=center;verticalAlign=top;" parent="1" vertex="1">
                    <mxGeometry x="630" y="558" width="30" height="30" as="geometry"/>
                </mxCell>
                <mxCell id="4" value="name" style="ellipse;whiteSpace=wrap;html=1;aspect=fixed;labelPosition=center;verticalLabelPosition=bottom;align=center;verticalAlign=top;" parent="1" vertex="1">
                    <mxGeometry x="560" y="310" width="30" height="30" as="geometry"/>
                </mxCell>
                <mxCell id="tv-IUSlmNRJrjBp0QFXY-5" value="name" style="ellipse;whiteSpace=wrap;html=1;aspect=fixed;labelPosition=center;verticalLabelPosition=bottom;align=center;verticalAlign=top;" parent="1" vertex="1">
                    <mxGeometry x="470" y="270" width="30" height="30" as="geometry"/>
                </mxCell>
                <mxCell id="OM0KdPZbjFu7hwkOpfSF-6" style="edgeStyle=none;rounded=0;orthogonalLoop=1;jettySize=auto;html=1;fontColor=#000000;" parent="1" source="OM0KdPZbjFu7hwkOpfSF-4" target="kCiKHfgYfUaN6RclirfY-29" edge="1">
                    <mxGeometry relative="1" as="geometry"/>
                </mxCell>
                <mxCell id="OM0KdPZbjFu7hwkOpfSF-4" value="postal_code" style="ellipse;whiteSpace=wrap;html=1;aspect=fixed;labelPosition=center;verticalLabelPosition=bottom;align=center;verticalAlign=top;" parent="1" vertex="1">
                    <mxGeometry x="320" y="270" width="30" height="30" as="geometry"/>
                </mxCell>
                <mxCell id="SdWjAgkBPctbadWdQZfF-4" value="" style="endArrow=none;html=1;rounded=0;fontColor=#000000;" parent="1" edge="1">
                    <mxGeometry width="50" height="50" relative="1" as="geometry">
                        <mxPoint x="287" y="636" as="sourcePoint"/>
                        <mxPoint x="267" y="636" as="targetPoint"/>
                        <Array as="points">
                            <mxPoint x="277" y="636"/>
                        </Array>
                    </mxGeometry>
                </mxCell>
                <mxCell id="jDhqt4TW9-ExgR0FoPD2-18" value="" style="edgeStyle=none;rounded=0;orthogonalLoop=1;jettySize=auto;html=1;" parent="1" source="kCiKHfgYfUaN6RclirfY-8" target="6qjix66qwmuikr4LNFUZ-8" edge="1">
                    <mxGeometry relative="1" as="geometry">
                        <mxPoint x="276.99890483969034" y="472.3187443523907" as="targetPoint"/>
                    </mxGeometry>
                </mxCell>
                <mxCell id="6qjix66qwmuikr4LNFUZ-4" value="order" style="shape=sumEllipse;perimeter=ellipsePerimeter;whiteSpace=wrap;html=1;backgroundOutline=1;labelPosition=center;verticalLabelPosition=bottom;align=center;verticalAlign=top;" parent="1" vertex="1">
                    <mxGeometry x="247" y="376" width="30" height="30" as="geometry"/>
                </mxCell>
                <mxCell id="6qjix66qwmuikr4LNFUZ-8" value="status" style="shape=sumEllipse;perimeter=ellipsePerimeter;whiteSpace=wrap;html=1;backgroundOutline=1;labelPosition=center;verticalLabelPosition=bottom;align=center;verticalAlign=top;" parent="1" vertex="1">
                    <mxGeometry x="245" y="453" width="30" height="30" as="geometry"/>
                </mxCell>
            </root>
        </mxGraphModel>
    </diagram>
    <diagram id="wOUhs14TMMU1IPU7U496" name="ORDER_PAYMENTS_FACTS">
        <mxGraphModel dx="1444" dy="974" grid="0" gridSize="10" guides="1" tooltips="1" connect="1" arrows="1" fold="1" page="1" pageScale="1" pageWidth="827" pageHeight="1169" math="0" shadow="0">
            <root>
                <mxCell id="p4ujnXpGSEVUwaCQQYuc-0"/>
                <mxCell id="p4ujnXpGSEVUwaCQQYuc-1" parent="p4ujnXpGSEVUwaCQQYuc-0"/>
                <mxCell id="CAN6pLAMEYEkFrUqCuGy-0" style="rounded=0;orthogonalLoop=1;jettySize=auto;html=1;" parent="p4ujnXpGSEVUwaCQQYuc-1" source="CAN6pLAMEYEkFrUqCuGy-1" target="uVrv_TG71zeJOSJW_wxn-2" edge="1">
                    <mxGeometry relative="1" as="geometry">
                        <mxPoint x="492.70270742090406" y="415.58933031288007" as="targetPoint"/>
                    </mxGeometry>
                </mxCell>
                <mxCell id="uVrv_TG71zeJOSJW_wxn-3" value="limit_payment_date" style="edgeStyle=orthogonalEdgeStyle;rounded=0;orthogonalLoop=1;jettySize=auto;html=1;fontColor=#000000;curved=1;" parent="p4ujnXpGSEVUwaCQQYuc-1" source="CAN6pLAMEYEkFrUqCuGy-1" target="CAN6pLAMEYEkFrUqCuGy-37" edge="1">
                    <mxGeometry x="-0.1972" y="-2" relative="1" as="geometry">
                        <mxPoint x="408" y="541" as="sourcePoint"/>
                        <mxPoint x="367.0257848223946" y="675.0344827586207" as="targetPoint"/>
                        <Array as="points">
                            <mxPoint x="435" y="715"/>
                        </Array>
                        <mxPoint as="offset"/>
                    </mxGeometry>
                </mxCell>
                <mxCell id="suiRCRNmJzAnexSupyft-0" value="order_date" style="edgeStyle=orthogonalEdgeStyle;curved=1;rounded=0;orthogonalLoop=1;jettySize=auto;html=1;" parent="p4ujnXpGSEVUwaCQQYuc-1" source="CAN6pLAMEYEkFrUqCuGy-1" target="CAN6pLAMEYEkFrUqCuGy-37" edge="1">
                    <mxGeometry x="-0.3797" relative="1" as="geometry">
                        <mxPoint x="355" y="682" as="targetPoint"/>
                        <mxPoint as="offset"/>
                    </mxGeometry>
                </mxCell>
                <mxCell id="CAN6pLAMEYEkFrUqCuGy-1" value="FACTS_ORDER_PAYMENTS" style="swimlane;fontStyle=0;childLayout=stackLayout;horizontal=1;startSize=30;horizontalStack=0;resizeParent=1;resizeParentMax=0;resizeLast=0;collapsible=1;marginBottom=0;whiteSpace=wrap;html=1;" parent="p4ujnXpGSEVUwaCQQYuc-1" vertex="1">
                    <mxGeometry x="270" y="392" width="170" height="150" as="geometry"/>
                </mxCell>
                <mxCell id="wfnByA8aGH615nHkubjn-0" value="payment_id" style="text;strokeColor=none;fillColor=none;align=left;verticalAlign=middle;spacingLeft=4;spacingRight=4;overflow=hidden;points=[[0,0.5],[1,0.5]];portConstraint=eastwest;rotatable=0;whiteSpace=wrap;html=1;" parent="CAN6pLAMEYEkFrUqCuGy-1" vertex="1">
                    <mxGeometry y="30" width="170" height="30" as="geometry"/>
                </mxCell>
                <mxCell id="2wfSpvKfuecPcaRqFWHM-2" value="value" style="text;strokeColor=none;fillColor=none;align=left;verticalAlign=middle;spacingLeft=4;spacingRight=4;overflow=hidden;points=[[0,0.5],[1,0.5]];portConstraint=eastwest;rotatable=0;whiteSpace=wrap;html=1;" parent="CAN6pLAMEYEkFrUqCuGy-1" vertex="1">
                    <mxGeometry y="60" width="170" height="30" as="geometry"/>
                </mxCell>
                <mxCell id="37ksdMhWNi0KTMLA7HxG-0" value="paid_amount" style="text;strokeColor=none;fillColor=none;align=left;verticalAlign=middle;spacingLeft=4;spacingRight=4;overflow=hidden;points=[[0,0.5],[1,0.5]];portConstraint=eastwest;rotatable=0;whiteSpace=wrap;html=1;" parent="CAN6pLAMEYEkFrUqCuGy-1" vertex="1">
                    <mxGeometry y="90" width="170" height="30" as="geometry"/>
                </mxCell>
                <mxCell id="37ksdMhWNi0KTMLA7HxG-1" value="payment_order_completed" style="text;strokeColor=none;fillColor=none;align=left;verticalAlign=middle;spacingLeft=4;spacingRight=4;overflow=hidden;points=[[0,0.5],[1,0.5]];portConstraint=eastwest;rotatable=0;whiteSpace=wrap;html=1;" parent="CAN6pLAMEYEkFrUqCuGy-1" vertex="1">
                    <mxGeometry y="120" width="170" height="30" as="geometry"/>
                </mxCell>
                <mxCell id="CAN6pLAMEYEkFrUqCuGy-10" style="edgeStyle=none;rounded=0;orthogonalLoop=1;jettySize=auto;html=1;labelBackgroundColor=none;" parent="p4ujnXpGSEVUwaCQQYuc-1" source="CAN6pLAMEYEkFrUqCuGy-12" target="CAN6pLAMEYEkFrUqCuGy-14" edge="1">
                    <mxGeometry relative="1" as="geometry"/>
                </mxCell>
                <mxCell id="CAN6pLAMEYEkFrUqCuGy-11" value="" style="rounded=0;orthogonalLoop=1;jettySize=auto;html=1;endArrow=classic;endFill=1;startArrow=none;startFill=0;labelBackgroundColor=none;" parent="p4ujnXpGSEVUwaCQQYuc-1" source="CAN6pLAMEYEkFrUqCuGy-12" target="CAN6pLAMEYEkFrUqCuGy-27" edge="1">
                    <mxGeometry relative="1" as="geometry">
                        <mxPoint x="200" y="372" as="targetPoint"/>
                    </mxGeometry>
                </mxCell>
                <mxCell id="CAN6pLAMEYEkFrUqCuGy-12" value="customer" style="ellipse;whiteSpace=wrap;html=1;aspect=fixed;labelPosition=center;verticalLabelPosition=bottom;align=center;verticalAlign=top;labelBackgroundColor=none;" parent="p4ujnXpGSEVUwaCQQYuc-1" vertex="1">
                    <mxGeometry x="185" y="452" width="30" height="30" as="geometry"/>
                </mxCell>
                <mxCell id="CAN6pLAMEYEkFrUqCuGy-13" style="rounded=0;orthogonalLoop=1;jettySize=auto;html=1;" parent="p4ujnXpGSEVUwaCQQYuc-1" source="CAN6pLAMEYEkFrUqCuGy-1" target="CAN6pLAMEYEkFrUqCuGy-12" edge="1">
                    <mxGeometry relative="1" as="geometry">
                        <mxPoint x="420" y="477" as="sourcePoint"/>
                        <mxPoint x="470" y="477" as="targetPoint"/>
                    </mxGeometry>
                </mxCell>
                <mxCell id="CAN6pLAMEYEkFrUqCuGy-14" value="address" style="ellipse;whiteSpace=wrap;html=1;aspect=fixed;labelPosition=center;verticalLabelPosition=bottom;align=center;verticalAlign=top;labelBackgroundColor=none;" parent="p4ujnXpGSEVUwaCQQYuc-1" vertex="1">
                    <mxGeometry x="80" y="452" width="30" height="30" as="geometry"/>
                </mxCell>
                <mxCell id="CAN6pLAMEYEkFrUqCuGy-17" style="rounded=0;orthogonalLoop=1;jettySize=auto;html=1;" parent="p4ujnXpGSEVUwaCQQYuc-1" source="CAN6pLAMEYEkFrUqCuGy-1" target="gv5Vg9jjQ15je1S__7SJ-0" edge="1">
                    <mxGeometry relative="1" as="geometry">
                        <mxPoint x="420" y="302" as="sourcePoint"/>
                        <mxPoint x="355" y="348" as="targetPoint"/>
                    </mxGeometry>
                </mxCell>
                <mxCell id="CAN6pLAMEYEkFrUqCuGy-27" value="credit_limit" style="text;html=1;strokeColor=none;fillColor=none;align=center;verticalAlign=middle;whiteSpace=wrap;rounded=0;labelBackgroundColor=none;" parent="p4ujnXpGSEVUwaCQQYuc-1" vertex="1">
                    <mxGeometry x="110" y="367" width="60" height="30" as="geometry"/>
                </mxCell>
                <mxCell id="CAN6pLAMEYEkFrUqCuGy-28" value="" style="rounded=0;orthogonalLoop=1;jettySize=auto;html=1;endArrow=classic;endFill=1;startArrow=none;startFill=0;labelBackgroundColor=none;" parent="p4ujnXpGSEVUwaCQQYuc-1" source="CAN6pLAMEYEkFrUqCuGy-12" target="CAN6pLAMEYEkFrUqCuGy-29" edge="1">
                    <mxGeometry relative="1" as="geometry">
                        <mxPoint x="210" y="547" as="sourcePoint"/>
                        <mxPoint x="200" y="617" as="targetPoint"/>
                    </mxGeometry>
                </mxCell>
                <mxCell id="CAN6pLAMEYEkFrUqCuGy-29" value="name" style="text;html=1;strokeColor=none;fillColor=none;align=center;verticalAlign=middle;whiteSpace=wrap;rounded=0;labelBackgroundColor=none;" parent="p4ujnXpGSEVUwaCQQYuc-1" vertex="1">
                    <mxGeometry x="80" y="527" width="60" height="30" as="geometry"/>
                </mxCell>
                <mxCell id="CAN6pLAMEYEkFrUqCuGy-30" value="" style="rounded=0;orthogonalLoop=1;jettySize=auto;html=1;endArrow=classic;endFill=1;startArrow=none;startFill=0;labelBackgroundColor=none;" parent="p4ujnXpGSEVUwaCQQYuc-1" source="CAN6pLAMEYEkFrUqCuGy-12" target="CAN6pLAMEYEkFrUqCuGy-31" edge="1">
                    <mxGeometry relative="1" as="geometry">
                        <mxPoint x="250" y="482" as="sourcePoint"/>
                        <mxPoint x="260" y="627" as="targetPoint"/>
                    </mxGeometry>
                </mxCell>
                <mxCell id="CAN6pLAMEYEkFrUqCuGy-31" value="phone" style="text;html=1;strokeColor=none;fillColor=none;align=center;verticalAlign=middle;whiteSpace=wrap;rounded=0;labelBackgroundColor=none;" parent="p4ujnXpGSEVUwaCQQYuc-1" vertex="1">
                    <mxGeometry x="170" y="537" width="60" height="30" as="geometry"/>
                </mxCell>
                <mxCell id="CAN6pLAMEYEkFrUqCuGy-33" value="" style="edgeStyle=none;rounded=0;orthogonalLoop=1;jettySize=auto;html=1;labelBackgroundColor=none;startArrow=none;startFill=0;endArrow=classic;endFill=1;" parent="p4ujnXpGSEVUwaCQQYuc-1" source="CAN6pLAMEYEkFrUqCuGy-37" target="CAN6pLAMEYEkFrUqCuGy-38" edge="1">
                    <mxGeometry relative="1" as="geometry"/>
                </mxCell>
                <mxCell id="CAN6pLAMEYEkFrUqCuGy-34" value="" style="edgeStyle=none;rounded=0;orthogonalLoop=1;jettySize=auto;html=1;labelBackgroundColor=none;startArrow=none;startFill=0;endArrow=classic;endFill=1;" parent="p4ujnXpGSEVUwaCQQYuc-1" source="CAN6pLAMEYEkFrUqCuGy-37" target="CAN6pLAMEYEkFrUqCuGy-39" edge="1">
                    <mxGeometry relative="1" as="geometry"/>
                </mxCell>
                <mxCell id="CAN6pLAMEYEkFrUqCuGy-35" value="" style="edgeStyle=none;rounded=0;orthogonalLoop=1;jettySize=auto;html=1;labelBackgroundColor=none;startArrow=none;startFill=0;endArrow=classic;endFill=1;" parent="p4ujnXpGSEVUwaCQQYuc-1" source="CAN6pLAMEYEkFrUqCuGy-37" target="CAN6pLAMEYEkFrUqCuGy-41" edge="1">
                    <mxGeometry relative="1" as="geometry"/>
                </mxCell>
                <mxCell id="CAN6pLAMEYEkFrUqCuGy-36" value="" style="edgeStyle=none;html=1;" parent="p4ujnXpGSEVUwaCQQYuc-1" source="CAN6pLAMEYEkFrUqCuGy-37" target="CAN6pLAMEYEkFrUqCuGy-45" edge="1">
                    <mxGeometry relative="1" as="geometry"/>
                </mxCell>
                <mxCell id="CAN6pLAMEYEkFrUqCuGy-37" value="date" style="ellipse;whiteSpace=wrap;html=1;aspect=fixed;labelPosition=center;verticalLabelPosition=bottom;align=center;verticalAlign=top;" parent="p4ujnXpGSEVUwaCQQYuc-1" vertex="1">
                    <mxGeometry x="340" y="703" width="30" height="30" as="geometry"/>
                </mxCell>
                <mxCell id="CAN6pLAMEYEkFrUqCuGy-38" value="day" style="ellipse;whiteSpace=wrap;html=1;aspect=fixed;labelPosition=center;verticalLabelPosition=bottom;align=center;verticalAlign=top;" parent="p4ujnXpGSEVUwaCQQYuc-1" vertex="1">
                    <mxGeometry x="230" y="755" width="30" height="30" as="geometry"/>
                </mxCell>
                <mxCell id="CAN6pLAMEYEkFrUqCuGy-39" value="week" style="ellipse;whiteSpace=wrap;html=1;aspect=fixed;labelPosition=center;verticalLabelPosition=bottom;align=center;verticalAlign=top;" parent="p4ujnXpGSEVUwaCQQYuc-1" vertex="1">
                    <mxGeometry x="435" y="745" width="30" height="30" as="geometry"/>
                </mxCell>
                <mxCell id="CAN6pLAMEYEkFrUqCuGy-40" value="" style="edgeStyle=none;rounded=0;orthogonalLoop=1;jettySize=auto;html=1;labelBackgroundColor=none;startArrow=none;startFill=0;endArrow=classic;endFill=1;" parent="p4ujnXpGSEVUwaCQQYuc-1" source="CAN6pLAMEYEkFrUqCuGy-41" target="CAN6pLAMEYEkFrUqCuGy-43" edge="1">
                    <mxGeometry relative="1" as="geometry"/>
                </mxCell>
                <mxCell id="CAN6pLAMEYEkFrUqCuGy-41" value="month" style="ellipse;whiteSpace=wrap;html=1;aspect=fixed;labelPosition=center;verticalLabelPosition=bottom;align=center;verticalAlign=top;" parent="p4ujnXpGSEVUwaCQQYuc-1" vertex="1">
                    <mxGeometry x="375" y="785" width="30" height="30" as="geometry"/>
                </mxCell>
                <mxCell id="CAN6pLAMEYEkFrUqCuGy-42" value="" style="edgeStyle=none;rounded=0;orthogonalLoop=1;jettySize=auto;html=1;labelBackgroundColor=none;startArrow=none;startFill=0;endArrow=classic;endFill=1;" parent="p4ujnXpGSEVUwaCQQYuc-1" source="CAN6pLAMEYEkFrUqCuGy-43" target="CAN6pLAMEYEkFrUqCuGy-44" edge="1">
                    <mxGeometry relative="1" as="geometry"/>
                </mxCell>
                <mxCell id="CAN6pLAMEYEkFrUqCuGy-43" value="quarter" style="ellipse;whiteSpace=wrap;html=1;aspect=fixed;labelPosition=center;verticalLabelPosition=bottom;align=center;verticalAlign=top;" parent="p4ujnXpGSEVUwaCQQYuc-1" vertex="1">
                    <mxGeometry x="375" y="865" width="30" height="30" as="geometry"/>
                </mxCell>
                <mxCell id="CAN6pLAMEYEkFrUqCuGy-44" value="year" style="ellipse;whiteSpace=wrap;html=1;aspect=fixed;labelPosition=center;verticalLabelPosition=bottom;align=center;verticalAlign=top;" parent="p4ujnXpGSEVUwaCQQYuc-1" vertex="1">
                    <mxGeometry x="375" y="935" width="30" height="30" as="geometry"/>
                </mxCell>
                <mxCell id="CAN6pLAMEYEkFrUqCuGy-45" value="holiday" style="ellipse;whiteSpace=wrap;html=1;aspect=fixed;labelPosition=center;verticalLabelPosition=bottom;align=center;verticalAlign=top;" parent="p4ujnXpGSEVUwaCQQYuc-1" vertex="1">
                    <mxGeometry x="285" y="790" width="30" height="30" as="geometry"/>
                </mxCell>
                <mxCell id="rrpFaihSFmPlrc7FySKM-7" style="rounded=0;orthogonalLoop=1;jettySize=auto;html=1;" parent="p4ujnXpGSEVUwaCQQYuc-1" source="CAN6pLAMEYEkFrUqCuGy-1" target="rrpFaihSFmPlrc7FySKM-8" edge="1">
                    <mxGeometry relative="1" as="geometry">
                        <mxPoint x="450" y="443" as="sourcePoint"/>
                    </mxGeometry>
                </mxCell>
                <mxCell id="R-U1owdy4f3d5yt5CvEW-10" style="edgeStyle=none;html=1;fontColor=#FFFF33;" parent="p4ujnXpGSEVUwaCQQYuc-1" source="rrpFaihSFmPlrc7FySKM-8" target="R-U1owdy4f3d5yt5CvEW-9" edge="1">
                    <mxGeometry relative="1" as="geometry"/>
                </mxCell>
                <mxCell id="R-U1owdy4f3d5yt5CvEW-16" value="" style="edgeStyle=none;html=1;fontColor=#FFFF33;" parent="p4ujnXpGSEVUwaCQQYuc-1" source="rrpFaihSFmPlrc7FySKM-8" target="R-U1owdy4f3d5yt5CvEW-15" edge="1">
                    <mxGeometry relative="1" as="geometry"/>
                </mxCell>
                <mxCell id="R-U1owdy4f3d5yt5CvEW-19" value="" style="edgeStyle=none;html=1;fontColor=#FFFF33;" parent="p4ujnXpGSEVUwaCQQYuc-1" source="rrpFaihSFmPlrc7FySKM-8" target="R-U1owdy4f3d5yt5CvEW-18" edge="1">
                    <mxGeometry relative="1" as="geometry"/>
                </mxCell>
                <mxCell id="rrpFaihSFmPlrc7FySKM-8" value="employee" style="ellipse;whiteSpace=wrap;html=1;aspect=fixed;labelPosition=center;verticalLabelPosition=top;align=center;verticalAlign=bottom;" parent="p4ujnXpGSEVUwaCQQYuc-1" vertex="1">
                    <mxGeometry x="490" y="507" width="30" height="30" as="geometry"/>
                </mxCell>
                <mxCell id="R-U1owdy4f3d5yt5CvEW-9" value="name" style="text;html=1;strokeColor=none;fillColor=none;align=center;verticalAlign=middle;whiteSpace=wrap;rounded=0;labelBackgroundColor=none;" parent="p4ujnXpGSEVUwaCQQYuc-1" vertex="1">
                    <mxGeometry x="570" y="493" width="60" height="30" as="geometry"/>
                </mxCell>
                <mxCell id="R-U1owdy4f3d5yt5CvEW-15" value="hire date" style="ellipse;whiteSpace=wrap;html=1;aspect=fixed;labelPosition=center;verticalLabelPosition=bottom;align=center;verticalAlign=top;" parent="p4ujnXpGSEVUwaCQQYuc-1" vertex="1">
                    <mxGeometry x="510" y="597" width="30" height="30" as="geometry"/>
                </mxCell>
                <mxCell id="R-U1owdy4f3d5yt5CvEW-18" value="manager" style="ellipse;whiteSpace=wrap;html=1;aspect=fixed;labelPosition=center;verticalLabelPosition=bottom;align=center;verticalAlign=top;" parent="p4ujnXpGSEVUwaCQQYuc-1" vertex="1">
                    <mxGeometry x="560" y="557" width="30" height="30" as="geometry"/>
                </mxCell>
                <mxCell id="gv5Vg9jjQ15je1S__7SJ-0" value="payment_method" style="shape=sumEllipse;perimeter=ellipsePerimeter;whiteSpace=wrap;html=1;backgroundOutline=1;labelPosition=center;verticalLabelPosition=top;align=center;verticalAlign=bottom;" parent="p4ujnXpGSEVUwaCQQYuc-1" vertex="1">
                    <mxGeometry x="340" y="328" width="30" height="30" as="geometry"/>
                </mxCell>
                <mxCell id="uVrv_TG71zeJOSJW_wxn-2" value="order_id" style="shape=sumEllipse;perimeter=ellipsePerimeter;whiteSpace=wrap;html=1;backgroundOutline=1;fontColor=#000000;labelPosition=center;verticalLabelPosition=bottom;align=center;verticalAlign=top;" parent="p4ujnXpGSEVUwaCQQYuc-1" vertex="1">
                    <mxGeometry x="495" y="392" width="30" height="30" as="geometry"/>
                </mxCell>
                <mxCell id="FIj-GmYT4zl-ff8zoK7J-0" value="payment_date" style="edgeStyle=orthogonalEdgeStyle;rounded=0;orthogonalLoop=1;jettySize=auto;html=1;fontColor=#000000;curved=1;" parent="p4ujnXpGSEVUwaCQQYuc-1" source="CAN6pLAMEYEkFrUqCuGy-1" target="CAN6pLAMEYEkFrUqCuGy-37" edge="1">
                    <mxGeometry x="-0.1731" relative="1" as="geometry">
                        <mxPoint x="418" y="552" as="sourcePoint"/>
                        <mxPoint x="380" y="695" as="targetPoint"/>
                        <Array as="points">
                            <mxPoint x="280" y="716"/>
                        </Array>
                        <mxPoint as="offset"/>
                    </mxGeometry>
                </mxCell>
                <mxCell id="6tJcoU5kXXOuaabGrk3R-2" value="" style="ellipse;whiteSpace=wrap;html=1;aspect=fixed;labelPosition=center;verticalLabelPosition=bottom;align=center;verticalAlign=top;" parent="p4ujnXpGSEVUwaCQQYuc-1" vertex="1">
                    <mxGeometry x="349.75" y="712.75" width="10.5" height="10.5" as="geometry"/>
                </mxCell>
            </root>
        </mxGraphModel>
    </diagram>
    <diagram name="SHIPPMENT_FACT" id="u6Jo8t5nnFwxSe3Ug8no">
        <mxGraphModel dx="1733" dy="1169" grid="0" gridSize="10" guides="1" tooltips="1" connect="1" arrows="1" fold="1" page="1" pageScale="1" pageWidth="827" pageHeight="1169" math="0" shadow="0">
            <root>
                <mxCell id="7ICfjTLoM7qgfO1rEHfn-0"/>
                <mxCell id="7ICfjTLoM7qgfO1rEHfn-1" parent="7ICfjTLoM7qgfO1rEHfn-0"/>
                <mxCell id="7ICfjTLoM7qgfO1rEHfn-3" value="FACT_SHIPMENT" style="swimlane;fontStyle=0;childLayout=stackLayout;horizontal=1;startSize=30;horizontalStack=0;resizeParent=1;resizeParentMax=0;resizeLast=0;collapsible=1;marginBottom=0;whiteSpace=wrap;html=1;" parent="7ICfjTLoM7qgfO1rEHfn-1" vertex="1">
                    <mxGeometry x="270" y="407" width="170" height="120" as="geometry"/>
                </mxCell>
                <mxCell id="GlSR4KCh6MJFnsvrZ7Uh-0" value="was_fully_paid" style="text;strokeColor=none;fillColor=none;align=left;verticalAlign=middle;spacingLeft=4;spacingRight=4;overflow=hidden;points=[[0,0.5],[1,0.5]];portConstraint=eastwest;rotatable=0;whiteSpace=wrap;html=1;" parent="7ICfjTLoM7qgfO1rEHfn-3" vertex="1">
                    <mxGeometry y="30" width="170" height="30" as="geometry"/>
                </mxCell>
                <mxCell id="9T36rx4qRUbkCy2t-o5d-0" value="paid_amount" style="text;strokeColor=none;fillColor=none;align=left;verticalAlign=middle;spacingLeft=4;spacingRight=4;overflow=hidden;points=[[0,0.5],[1,0.5]];portConstraint=eastwest;rotatable=0;whiteSpace=wrap;html=1;" parent="7ICfjTLoM7qgfO1rEHfn-3" vertex="1">
                    <mxGeometry y="60" width="170" height="30" as="geometry"/>
                </mxCell>
                <mxCell id="9T36rx4qRUbkCy2t-o5d-1" value="n_days_until_shippment" style="text;strokeColor=none;fillColor=none;align=left;verticalAlign=middle;spacingLeft=4;spacingRight=4;overflow=hidden;points=[[0,0.5],[1,0.5]];portConstraint=eastwest;rotatable=0;whiteSpace=wrap;html=1;" parent="7ICfjTLoM7qgfO1rEHfn-3" vertex="1">
                    <mxGeometry y="90" width="170" height="30" as="geometry"/>
                </mxCell>
                <mxCell id="7ICfjTLoM7qgfO1rEHfn-11" style="edgeStyle=none;rounded=0;orthogonalLoop=1;jettySize=auto;html=1;labelBackgroundColor=none;" parent="7ICfjTLoM7qgfO1rEHfn-1" source="7ICfjTLoM7qgfO1rEHfn-13" target="7ICfjTLoM7qgfO1rEHfn-15" edge="1">
                    <mxGeometry relative="1" as="geometry"/>
                </mxCell>
                <mxCell id="7ICfjTLoM7qgfO1rEHfn-12" value="" style="rounded=0;orthogonalLoop=1;jettySize=auto;html=1;endArrow=classic;endFill=1;startArrow=none;startFill=0;labelBackgroundColor=none;" parent="7ICfjTLoM7qgfO1rEHfn-1" source="7ICfjTLoM7qgfO1rEHfn-13" target="7ICfjTLoM7qgfO1rEHfn-17" edge="1">
                    <mxGeometry relative="1" as="geometry">
                        <mxPoint x="200" y="372" as="targetPoint"/>
                    </mxGeometry>
                </mxCell>
                <mxCell id="7ICfjTLoM7qgfO1rEHfn-13" value="customer" style="ellipse;whiteSpace=wrap;html=1;aspect=fixed;labelPosition=center;verticalLabelPosition=bottom;align=center;verticalAlign=top;labelBackgroundColor=none;" parent="7ICfjTLoM7qgfO1rEHfn-1" vertex="1">
                    <mxGeometry x="185" y="452" width="30" height="30" as="geometry"/>
                </mxCell>
                <mxCell id="7ICfjTLoM7qgfO1rEHfn-14" style="rounded=0;orthogonalLoop=1;jettySize=auto;html=1;" parent="7ICfjTLoM7qgfO1rEHfn-1" source="7ICfjTLoM7qgfO1rEHfn-3" target="7ICfjTLoM7qgfO1rEHfn-13" edge="1">
                    <mxGeometry relative="1" as="geometry">
                        <mxPoint x="420" y="477" as="sourcePoint"/>
                        <mxPoint x="470" y="477" as="targetPoint"/>
                    </mxGeometry>
                </mxCell>
                <mxCell id="7ICfjTLoM7qgfO1rEHfn-15" value="address" style="ellipse;whiteSpace=wrap;html=1;aspect=fixed;labelPosition=center;verticalLabelPosition=bottom;align=center;verticalAlign=top;labelBackgroundColor=none;" parent="7ICfjTLoM7qgfO1rEHfn-1" vertex="1">
                    <mxGeometry x="80" y="452" width="30" height="30" as="geometry"/>
                </mxCell>
                <mxCell id="7ICfjTLoM7qgfO1rEHfn-17" value="credit_limit" style="text;html=1;strokeColor=none;fillColor=none;align=center;verticalAlign=middle;whiteSpace=wrap;rounded=0;labelBackgroundColor=none;" parent="7ICfjTLoM7qgfO1rEHfn-1" vertex="1">
                    <mxGeometry x="110" y="367" width="60" height="30" as="geometry"/>
                </mxCell>
                <mxCell id="7ICfjTLoM7qgfO1rEHfn-18" value="" style="rounded=0;orthogonalLoop=1;jettySize=auto;html=1;endArrow=classic;endFill=1;startArrow=none;startFill=0;labelBackgroundColor=none;" parent="7ICfjTLoM7qgfO1rEHfn-1" source="7ICfjTLoM7qgfO1rEHfn-13" target="7ICfjTLoM7qgfO1rEHfn-19" edge="1">
                    <mxGeometry relative="1" as="geometry">
                        <mxPoint x="210" y="547" as="sourcePoint"/>
                        <mxPoint x="200" y="617" as="targetPoint"/>
                    </mxGeometry>
                </mxCell>
                <mxCell id="7ICfjTLoM7qgfO1rEHfn-19" value="name" style="text;html=1;strokeColor=none;fillColor=none;align=center;verticalAlign=middle;whiteSpace=wrap;rounded=0;labelBackgroundColor=none;" parent="7ICfjTLoM7qgfO1rEHfn-1" vertex="1">
                    <mxGeometry x="80" y="527" width="60" height="30" as="geometry"/>
                </mxCell>
                <mxCell id="7ICfjTLoM7qgfO1rEHfn-20" value="" style="rounded=0;orthogonalLoop=1;jettySize=auto;html=1;endArrow=classic;endFill=1;startArrow=none;startFill=0;labelBackgroundColor=none;" parent="7ICfjTLoM7qgfO1rEHfn-1" source="7ICfjTLoM7qgfO1rEHfn-13" target="7ICfjTLoM7qgfO1rEHfn-21" edge="1">
                    <mxGeometry relative="1" as="geometry">
                        <mxPoint x="250" y="482" as="sourcePoint"/>
                        <mxPoint x="260" y="627" as="targetPoint"/>
                    </mxGeometry>
                </mxCell>
                <mxCell id="7ICfjTLoM7qgfO1rEHfn-21" value="phone" style="text;html=1;strokeColor=none;fillColor=none;align=center;verticalAlign=middle;whiteSpace=wrap;rounded=0;labelBackgroundColor=none;" parent="7ICfjTLoM7qgfO1rEHfn-1" vertex="1">
                    <mxGeometry x="170" y="537" width="60" height="30" as="geometry"/>
                </mxCell>
                <mxCell id="7ICfjTLoM7qgfO1rEHfn-22" value="" style="rounded=0;orthogonalLoop=1;jettySize=auto;html=1;edgeStyle=orthogonalEdgeStyle;curved=1;" parent="7ICfjTLoM7qgfO1rEHfn-1" source="7ICfjTLoM7qgfO1rEHfn-3" target="7ICfjTLoM7qgfO1rEHfn-27" edge="1">
                    <mxGeometry relative="1" as="geometry">
                        <mxPoint x="342.92456782654085" y="547" as="sourcePoint"/>
                        <Array as="points">
                            <mxPoint x="353" y="523"/>
                            <mxPoint x="353" y="523"/>
                        </Array>
                    </mxGeometry>
                </mxCell>
                <mxCell id="7ICfjTLoM7qgfO1rEHfn-23" value="" style="edgeStyle=none;rounded=0;orthogonalLoop=1;jettySize=auto;html=1;labelBackgroundColor=none;startArrow=none;startFill=0;endArrow=classic;endFill=1;" parent="7ICfjTLoM7qgfO1rEHfn-1" source="7ICfjTLoM7qgfO1rEHfn-27" target="7ICfjTLoM7qgfO1rEHfn-28" edge="1">
                    <mxGeometry relative="1" as="geometry"/>
                </mxCell>
                <mxCell id="7ICfjTLoM7qgfO1rEHfn-24" value="" style="edgeStyle=none;rounded=0;orthogonalLoop=1;jettySize=auto;html=1;labelBackgroundColor=none;startArrow=none;startFill=0;endArrow=classic;endFill=1;" parent="7ICfjTLoM7qgfO1rEHfn-1" source="7ICfjTLoM7qgfO1rEHfn-27" target="7ICfjTLoM7qgfO1rEHfn-29" edge="1">
                    <mxGeometry relative="1" as="geometry"/>
                </mxCell>
                <mxCell id="7ICfjTLoM7qgfO1rEHfn-25" value="" style="edgeStyle=none;rounded=0;orthogonalLoop=1;jettySize=auto;html=1;labelBackgroundColor=none;startArrow=none;startFill=0;endArrow=classic;endFill=1;" parent="7ICfjTLoM7qgfO1rEHfn-1" source="7ICfjTLoM7qgfO1rEHfn-27" target="7ICfjTLoM7qgfO1rEHfn-31" edge="1">
                    <mxGeometry relative="1" as="geometry"/>
                </mxCell>
                <mxCell id="7ICfjTLoM7qgfO1rEHfn-26" value="" style="edgeStyle=none;html=1;" parent="7ICfjTLoM7qgfO1rEHfn-1" source="7ICfjTLoM7qgfO1rEHfn-27" target="7ICfjTLoM7qgfO1rEHfn-35" edge="1">
                    <mxGeometry relative="1" as="geometry"/>
                </mxCell>
                <mxCell id="7ICfjTLoM7qgfO1rEHfn-27" value="date" style="ellipse;whiteSpace=wrap;html=1;aspect=fixed;labelPosition=center;verticalLabelPosition=bottom;align=center;verticalAlign=top;" parent="7ICfjTLoM7qgfO1rEHfn-1" vertex="1">
                    <mxGeometry x="338" y="587" width="30" height="30" as="geometry"/>
                </mxCell>
                <mxCell id="7ICfjTLoM7qgfO1rEHfn-28" value="day" style="ellipse;whiteSpace=wrap;html=1;aspect=fixed;labelPosition=center;verticalLabelPosition=bottom;align=center;verticalAlign=top;" parent="7ICfjTLoM7qgfO1rEHfn-1" vertex="1">
                    <mxGeometry x="230" y="632" width="30" height="30" as="geometry"/>
                </mxCell>
                <mxCell id="7ICfjTLoM7qgfO1rEHfn-29" value="week" style="ellipse;whiteSpace=wrap;html=1;aspect=fixed;labelPosition=center;verticalLabelPosition=bottom;align=center;verticalAlign=top;" parent="7ICfjTLoM7qgfO1rEHfn-1" vertex="1">
                    <mxGeometry x="435" y="622" width="30" height="30" as="geometry"/>
                </mxCell>
                <mxCell id="7ICfjTLoM7qgfO1rEHfn-30" value="" style="edgeStyle=none;rounded=0;orthogonalLoop=1;jettySize=auto;html=1;labelBackgroundColor=none;startArrow=none;startFill=0;endArrow=classic;endFill=1;" parent="7ICfjTLoM7qgfO1rEHfn-1" source="7ICfjTLoM7qgfO1rEHfn-31" target="7ICfjTLoM7qgfO1rEHfn-33" edge="1">
                    <mxGeometry relative="1" as="geometry"/>
                </mxCell>
                <mxCell id="7ICfjTLoM7qgfO1rEHfn-31" value="month" style="ellipse;whiteSpace=wrap;html=1;aspect=fixed;labelPosition=center;verticalLabelPosition=bottom;align=center;verticalAlign=top;" parent="7ICfjTLoM7qgfO1rEHfn-1" vertex="1">
                    <mxGeometry x="375" y="662" width="30" height="30" as="geometry"/>
                </mxCell>
                <mxCell id="7ICfjTLoM7qgfO1rEHfn-32" value="" style="edgeStyle=none;rounded=0;orthogonalLoop=1;jettySize=auto;html=1;labelBackgroundColor=none;startArrow=none;startFill=0;endArrow=classic;endFill=1;" parent="7ICfjTLoM7qgfO1rEHfn-1" source="7ICfjTLoM7qgfO1rEHfn-33" target="7ICfjTLoM7qgfO1rEHfn-34" edge="1">
                    <mxGeometry relative="1" as="geometry"/>
                </mxCell>
                <mxCell id="7ICfjTLoM7qgfO1rEHfn-33" value="quarter" style="ellipse;whiteSpace=wrap;html=1;aspect=fixed;labelPosition=center;verticalLabelPosition=bottom;align=center;verticalAlign=top;" parent="7ICfjTLoM7qgfO1rEHfn-1" vertex="1">
                    <mxGeometry x="375" y="742" width="30" height="30" as="geometry"/>
                </mxCell>
                <mxCell id="7ICfjTLoM7qgfO1rEHfn-34" value="year" style="ellipse;whiteSpace=wrap;html=1;aspect=fixed;labelPosition=center;verticalLabelPosition=bottom;align=center;verticalAlign=top;" parent="7ICfjTLoM7qgfO1rEHfn-1" vertex="1">
                    <mxGeometry x="375" y="812" width="30" height="30" as="geometry"/>
                </mxCell>
                <mxCell id="7ICfjTLoM7qgfO1rEHfn-35" value="holiday" style="ellipse;whiteSpace=wrap;html=1;aspect=fixed;labelPosition=center;verticalLabelPosition=bottom;align=center;verticalAlign=top;" parent="7ICfjTLoM7qgfO1rEHfn-1" vertex="1">
                    <mxGeometry x="285" y="667" width="30" height="30" as="geometry"/>
                </mxCell>
                <mxCell id="OuTVtEnB67B1YNNtFW5Q-1" style="rounded=0;orthogonalLoop=1;jettySize=auto;html=1;" parent="7ICfjTLoM7qgfO1rEHfn-1" source="7ICfjTLoM7qgfO1rEHfn-3" target="vF6JcI0AngN9OGGdYcqB-0" edge="1">
                    <mxGeometry relative="1" as="geometry">
                        <mxPoint x="365" y="552" as="sourcePoint"/>
                        <mxPoint x="602" y="518" as="targetPoint"/>
                    </mxGeometry>
                </mxCell>
                <mxCell id="vF6JcI0AngN9OGGdYcqB-0" value="order_id" style="shape=sumEllipse;perimeter=ellipsePerimeter;whiteSpace=wrap;html=1;backgroundOutline=1;labelPosition=center;verticalLabelPosition=bottom;align=center;verticalAlign=top;" parent="7ICfjTLoM7qgfO1rEHfn-1" vertex="1">
                    <mxGeometry x="489" y="530" width="30" height="30" as="geometry"/>
                </mxCell>
                <mxCell id="owJEClPHnQCV4BsXaVgM-0" value="" style="rounded=0;orthogonalLoop=1;jettySize=auto;html=1;" parent="7ICfjTLoM7qgfO1rEHfn-1" source="owJEClPHnQCV4BsXaVgM-3" target="owJEClPHnQCV4BsXaVgM-4" edge="1">
                    <mxGeometry relative="1" as="geometry"/>
                </mxCell>
                <mxCell id="owJEClPHnQCV4BsXaVgM-1" style="edgeStyle=none;rounded=0;orthogonalLoop=1;jettySize=auto;html=1;" parent="7ICfjTLoM7qgfO1rEHfn-1" source="owJEClPHnQCV4BsXaVgM-3" target="owJEClPHnQCV4BsXaVgM-5" edge="1">
                    <mxGeometry relative="1" as="geometry">
                        <mxPoint x="581.9141945536496" y="331.6340710099221" as="targetPoint"/>
                    </mxGeometry>
                </mxCell>
                <mxCell id="owJEClPHnQCV4BsXaVgM-2" style="edgeStyle=none;html=1;" parent="7ICfjTLoM7qgfO1rEHfn-1" source="owJEClPHnQCV4BsXaVgM-3" target="owJEClPHnQCV4BsXaVgM-6" edge="1">
                    <mxGeometry relative="1" as="geometry">
                        <mxPoint x="485" y="377" as="targetPoint"/>
                    </mxGeometry>
                </mxCell>
                <mxCell id="owJEClPHnQCV4BsXaVgM-3" value="product" style="ellipse;whiteSpace=wrap;html=1;aspect=fixed;labelPosition=center;verticalLabelPosition=bottom;align=center;verticalAlign=top;" parent="7ICfjTLoM7qgfO1rEHfn-1" vertex="1">
                    <mxGeometry x="495" y="434" width="30" height="30" as="geometry"/>
                </mxCell>
                <mxCell id="owJEClPHnQCV4BsXaVgM-4" value="category" style="ellipse;whiteSpace=wrap;html=1;aspect=fixed;labelPosition=center;verticalLabelPosition=bottom;align=center;verticalAlign=top;" parent="7ICfjTLoM7qgfO1rEHfn-1" vertex="1">
                    <mxGeometry x="565" y="437" width="30" height="30" as="geometry"/>
                </mxCell>
                <mxCell id="owJEClPHnQCV4BsXaVgM-5" value="description" style="text;html=1;strokeColor=none;fillColor=none;align=center;verticalAlign=middle;whiteSpace=wrap;rounded=0;labelPosition=center;verticalLabelPosition=middle;" parent="7ICfjTLoM7qgfO1rEHfn-1" vertex="1">
                    <mxGeometry x="550" y="377" width="60" height="30" as="geometry"/>
                </mxCell>
                <mxCell id="owJEClPHnQCV4BsXaVgM-6" value="name" style="ellipse;whiteSpace=wrap;html=1;aspect=fixed;labelPosition=center;verticalLabelPosition=bottom;align=center;verticalAlign=top;" parent="7ICfjTLoM7qgfO1rEHfn-1" vertex="1">
                    <mxGeometry x="515" y="337" width="30" height="30" as="geometry"/>
                </mxCell>
                <mxCell id="owJEClPHnQCV4BsXaVgM-7" style="rounded=0;orthogonalLoop=1;jettySize=auto;html=1;" parent="7ICfjTLoM7qgfO1rEHfn-1" source="7ICfjTLoM7qgfO1rEHfn-3" target="owJEClPHnQCV4BsXaVgM-3" edge="1">
                    <mxGeometry relative="1" as="geometry">
                        <mxPoint x="397.3522610420764" y="492" as="sourcePoint"/>
                        <mxPoint x="435.2989482475632" y="544.7815017944502" as="targetPoint"/>
                    </mxGeometry>
                </mxCell>
                <mxCell id="FE_D64OGhsCVfB2pqZOn-16" value="" style="edgeStyle=none;rounded=0;orthogonalLoop=1;jettySize=auto;html=1;" parent="7ICfjTLoM7qgfO1rEHfn-1" source="FE_D64OGhsCVfB2pqZOn-19" target="FE_D64OGhsCVfB2pqZOn-22" edge="1">
                    <mxGeometry relative="1" as="geometry"/>
                </mxCell>
                <mxCell id="FE_D64OGhsCVfB2pqZOn-17" value="" style="edgeStyle=none;html=1;fontColor=#FFFFFF;" parent="7ICfjTLoM7qgfO1rEHfn-1" source="FE_D64OGhsCVfB2pqZOn-19" target="FE_D64OGhsCVfB2pqZOn-29" edge="1">
                    <mxGeometry relative="1" as="geometry"/>
                </mxCell>
                <mxCell id="FE_D64OGhsCVfB2pqZOn-18" value="" style="rounded=0;orthogonalLoop=1;jettySize=auto;html=1;fontColor=#000000;" parent="7ICfjTLoM7qgfO1rEHfn-1" source="FE_D64OGhsCVfB2pqZOn-19" target="FE_D64OGhsCVfB2pqZOn-31" edge="1">
                    <mxGeometry relative="1" as="geometry"/>
                </mxCell>
                <mxCell id="FE_D64OGhsCVfB2pqZOn-19" value="warehouse" style="ellipse;whiteSpace=wrap;html=1;aspect=fixed;labelPosition=center;verticalLabelPosition=bottom;align=center;verticalAlign=top;" parent="7ICfjTLoM7qgfO1rEHfn-1" vertex="1">
                    <mxGeometry x="342" y="319" width="30" height="30" as="geometry"/>
                </mxCell>
                <mxCell id="FE_D64OGhsCVfB2pqZOn-20" style="rounded=0;orthogonalLoop=1;jettySize=auto;html=1;" parent="7ICfjTLoM7qgfO1rEHfn-1" source="7ICfjTLoM7qgfO1rEHfn-3" target="FE_D64OGhsCVfB2pqZOn-19" edge="1">
                    <mxGeometry relative="1" as="geometry">
                        <mxPoint x="357" y="383" as="sourcePoint"/>
                        <mxPoint x="637" y="312" as="targetPoint"/>
                    </mxGeometry>
                </mxCell>
                <mxCell id="FE_D64OGhsCVfB2pqZOn-21" value="" style="edgeStyle=none;rounded=0;orthogonalLoop=1;jettySize=auto;html=1;" parent="7ICfjTLoM7qgfO1rEHfn-1" source="FE_D64OGhsCVfB2pqZOn-22" target="FE_D64OGhsCVfB2pqZOn-24" edge="1">
                    <mxGeometry relative="1" as="geometry"/>
                </mxCell>
                <mxCell id="FE_D64OGhsCVfB2pqZOn-22" value="city" style="ellipse;whiteSpace=wrap;html=1;aspect=fixed;labelPosition=center;verticalLabelPosition=bottom;align=center;verticalAlign=top;" parent="7ICfjTLoM7qgfO1rEHfn-1" vertex="1">
                    <mxGeometry x="342" y="249" width="30" height="30" as="geometry"/>
                </mxCell>
                <mxCell id="FE_D64OGhsCVfB2pqZOn-23" value="" style="edgeStyle=orthogonalEdgeStyle;rounded=0;orthogonalLoop=1;jettySize=auto;html=1;" parent="7ICfjTLoM7qgfO1rEHfn-1" source="FE_D64OGhsCVfB2pqZOn-24" target="FE_D64OGhsCVfB2pqZOn-27" edge="1">
                    <mxGeometry relative="1" as="geometry"/>
                </mxCell>
                <mxCell id="FE_D64OGhsCVfB2pqZOn-24" value="state" style="ellipse;whiteSpace=wrap;html=1;aspect=fixed;labelPosition=center;verticalLabelPosition=bottom;align=center;verticalAlign=top;" parent="7ICfjTLoM7qgfO1rEHfn-1" vertex="1">
                    <mxGeometry x="342" y="169" width="30" height="30" as="geometry"/>
                </mxCell>
                <mxCell id="FE_D64OGhsCVfB2pqZOn-25" value="" style="edgeStyle=orthogonalEdgeStyle;rounded=0;orthogonalLoop=1;jettySize=auto;html=1;endArrow=none;endFill=0;" parent="7ICfjTLoM7qgfO1rEHfn-1" source="FE_D64OGhsCVfB2pqZOn-27" target="FE_D64OGhsCVfB2pqZOn-24" edge="1">
                    <mxGeometry relative="1" as="geometry"/>
                </mxCell>
                <mxCell id="FE_D64OGhsCVfB2pqZOn-26" value="" style="edgeStyle=orthogonalEdgeStyle;rounded=0;orthogonalLoop=1;jettySize=auto;html=1;" parent="7ICfjTLoM7qgfO1rEHfn-1" source="FE_D64OGhsCVfB2pqZOn-27" target="FE_D64OGhsCVfB2pqZOn-28" edge="1">
                    <mxGeometry relative="1" as="geometry"/>
                </mxCell>
                <mxCell id="FE_D64OGhsCVfB2pqZOn-27" value="country" style="ellipse;whiteSpace=wrap;html=1;aspect=fixed;labelPosition=center;verticalLabelPosition=bottom;align=center;verticalAlign=top;" parent="7ICfjTLoM7qgfO1rEHfn-1" vertex="1">
                    <mxGeometry x="342" y="89" width="30" height="30" as="geometry"/>
                </mxCell>
                <mxCell id="FE_D64OGhsCVfB2pqZOn-28" value="region" style="ellipse;whiteSpace=wrap;html=1;aspect=fixed;labelPosition=center;verticalLabelPosition=bottom;align=center;verticalAlign=top;" parent="7ICfjTLoM7qgfO1rEHfn-1" vertex="1">
                    <mxGeometry x="342" y="19" width="30" height="30" as="geometry"/>
                </mxCell>
                <mxCell id="FE_D64OGhsCVfB2pqZOn-29" value="name" style="ellipse;whiteSpace=wrap;html=1;aspect=fixed;labelPosition=center;verticalLabelPosition=bottom;align=center;verticalAlign=top;" parent="7ICfjTLoM7qgfO1rEHfn-1" vertex="1">
                    <mxGeometry x="407" y="270" width="30" height="30" as="geometry"/>
                </mxCell>
                <mxCell id="FE_D64OGhsCVfB2pqZOn-30" style="edgeStyle=none;rounded=0;orthogonalLoop=1;jettySize=auto;html=1;fontColor=#000000;" parent="7ICfjTLoM7qgfO1rEHfn-1" source="FE_D64OGhsCVfB2pqZOn-31" target="FE_D64OGhsCVfB2pqZOn-24" edge="1">
                    <mxGeometry relative="1" as="geometry"/>
                </mxCell>
                <mxCell id="FE_D64OGhsCVfB2pqZOn-31" value="postal_code" style="ellipse;whiteSpace=wrap;html=1;aspect=fixed;labelPosition=center;verticalLabelPosition=bottom;align=center;verticalAlign=top;" parent="7ICfjTLoM7qgfO1rEHfn-1" vertex="1">
                    <mxGeometry x="257" y="270" width="30" height="30" as="geometry"/>
                </mxCell>
            </root>
        </mxGraphModel>
    </diagram>
    <diagram name="CANCELLATION_FACT" id="rSS8_JZ8M1KyIxd8y5oV">
        <mxGraphModel dx="1733" dy="1169" grid="0" gridSize="10" guides="1" tooltips="1" connect="1" arrows="1" fold="1" page="1" pageScale="1" pageWidth="827" pageHeight="1169" math="0" shadow="0">
            <root>
                <mxCell id="Bub4GMo0w9fSaEJae0NU-0"/>
                <mxCell id="Bub4GMo0w9fSaEJae0NU-1" parent="Bub4GMo0w9fSaEJae0NU-0"/>
                <mxCell id="q4eZk9-1qwtuM1nyc4VC-1" style="edgeStyle=none;rounded=0;orthogonalLoop=1;jettySize=auto;html=1;" parent="Bub4GMo0w9fSaEJae0NU-1" source="Bub4GMo0w9fSaEJae0NU-2" target="fs503FM_zpK9mRkdbAuu-1" edge="1">
                    <mxGeometry relative="1" as="geometry"/>
                </mxCell>
                <mxCell id="Bub4GMo0w9fSaEJae0NU-2" value="FACT_CANCELATION" style="swimlane;fontStyle=0;childLayout=stackLayout;horizontal=1;startSize=30;horizontalStack=0;resizeParent=1;resizeParentMax=0;resizeLast=0;collapsible=1;marginBottom=0;whiteSpace=wrap;html=1;" parent="Bub4GMo0w9fSaEJae0NU-1" vertex="1">
                    <mxGeometry x="270" y="422" width="170" height="60" as="geometry"/>
                </mxCell>
                <mxCell id="3JDmgHb052FENJoYDIlJ-1" value="n_days_until_cancellation" style="text;strokeColor=none;fillColor=none;align=left;verticalAlign=middle;spacingLeft=4;spacingRight=4;overflow=hidden;points=[[0,0.5],[1,0.5]];portConstraint=eastwest;rotatable=0;whiteSpace=wrap;html=1;" parent="Bub4GMo0w9fSaEJae0NU-2" vertex="1">
                    <mxGeometry y="30" width="170" height="30" as="geometry"/>
                </mxCell>
                <mxCell id="Bub4GMo0w9fSaEJae0NU-6" style="edgeStyle=none;rounded=0;orthogonalLoop=1;jettySize=auto;html=1;labelBackgroundColor=none;" parent="Bub4GMo0w9fSaEJae0NU-1" source="Bub4GMo0w9fSaEJae0NU-8" target="Bub4GMo0w9fSaEJae0NU-10" edge="1">
                    <mxGeometry relative="1" as="geometry"/>
                </mxCell>
                <mxCell id="Bub4GMo0w9fSaEJae0NU-7" value="" style="rounded=0;orthogonalLoop=1;jettySize=auto;html=1;endArrow=classic;endFill=1;startArrow=none;startFill=0;labelBackgroundColor=none;" parent="Bub4GMo0w9fSaEJae0NU-1" source="Bub4GMo0w9fSaEJae0NU-8" target="Bub4GMo0w9fSaEJae0NU-11" edge="1">
                    <mxGeometry relative="1" as="geometry">
                        <mxPoint x="200" y="372" as="targetPoint"/>
                    </mxGeometry>
                </mxCell>
                <mxCell id="Bub4GMo0w9fSaEJae0NU-8" value="customer" style="ellipse;whiteSpace=wrap;html=1;aspect=fixed;labelPosition=center;verticalLabelPosition=bottom;align=center;verticalAlign=top;labelBackgroundColor=none;" parent="Bub4GMo0w9fSaEJae0NU-1" vertex="1">
                    <mxGeometry x="185" y="437" width="30" height="30" as="geometry"/>
                </mxCell>
                <mxCell id="Bub4GMo0w9fSaEJae0NU-9" style="rounded=0;orthogonalLoop=1;jettySize=auto;html=1;" parent="Bub4GMo0w9fSaEJae0NU-1" source="Bub4GMo0w9fSaEJae0NU-2" target="Bub4GMo0w9fSaEJae0NU-8" edge="1">
                    <mxGeometry relative="1" as="geometry">
                        <mxPoint x="420" y="477" as="sourcePoint"/>
                        <mxPoint x="470" y="477" as="targetPoint"/>
                    </mxGeometry>
                </mxCell>
                <mxCell id="Bub4GMo0w9fSaEJae0NU-10" value="address" style="ellipse;whiteSpace=wrap;html=1;aspect=fixed;labelPosition=center;verticalLabelPosition=bottom;align=center;verticalAlign=top;labelBackgroundColor=none;" parent="Bub4GMo0w9fSaEJae0NU-1" vertex="1">
                    <mxGeometry x="80" y="452" width="30" height="30" as="geometry"/>
                </mxCell>
                <mxCell id="Bub4GMo0w9fSaEJae0NU-11" value="credit_limit" style="text;html=1;strokeColor=none;fillColor=none;align=center;verticalAlign=middle;whiteSpace=wrap;rounded=0;labelBackgroundColor=none;" parent="Bub4GMo0w9fSaEJae0NU-1" vertex="1">
                    <mxGeometry x="110" y="367" width="60" height="30" as="geometry"/>
                </mxCell>
                <mxCell id="Bub4GMo0w9fSaEJae0NU-12" value="" style="rounded=0;orthogonalLoop=1;jettySize=auto;html=1;endArrow=classic;endFill=1;startArrow=none;startFill=0;labelBackgroundColor=none;" parent="Bub4GMo0w9fSaEJae0NU-1" source="Bub4GMo0w9fSaEJae0NU-8" target="Bub4GMo0w9fSaEJae0NU-13" edge="1">
                    <mxGeometry relative="1" as="geometry">
                        <mxPoint x="210" y="547" as="sourcePoint"/>
                        <mxPoint x="200" y="617" as="targetPoint"/>
                    </mxGeometry>
                </mxCell>
                <mxCell id="Bub4GMo0w9fSaEJae0NU-13" value="name" style="text;html=1;strokeColor=none;fillColor=none;align=center;verticalAlign=middle;whiteSpace=wrap;rounded=0;labelBackgroundColor=none;" parent="Bub4GMo0w9fSaEJae0NU-1" vertex="1">
                    <mxGeometry x="80" y="527" width="60" height="30" as="geometry"/>
                </mxCell>
                <mxCell id="Bub4GMo0w9fSaEJae0NU-14" value="" style="rounded=0;orthogonalLoop=1;jettySize=auto;html=1;endArrow=classic;endFill=1;startArrow=none;startFill=0;labelBackgroundColor=none;" parent="Bub4GMo0w9fSaEJae0NU-1" source="Bub4GMo0w9fSaEJae0NU-8" target="Bub4GMo0w9fSaEJae0NU-15" edge="1">
                    <mxGeometry relative="1" as="geometry">
                        <mxPoint x="250" y="482" as="sourcePoint"/>
                        <mxPoint x="260" y="627" as="targetPoint"/>
                    </mxGeometry>
                </mxCell>
                <mxCell id="Bub4GMo0w9fSaEJae0NU-15" value="phone" style="text;html=1;strokeColor=none;fillColor=none;align=center;verticalAlign=middle;whiteSpace=wrap;rounded=0;labelBackgroundColor=none;" parent="Bub4GMo0w9fSaEJae0NU-1" vertex="1">
                    <mxGeometry x="170" y="537" width="60" height="30" as="geometry"/>
                </mxCell>
                <mxCell id="Bub4GMo0w9fSaEJae0NU-16" value="" style="rounded=0;orthogonalLoop=1;jettySize=auto;html=1;" parent="Bub4GMo0w9fSaEJae0NU-1" source="Bub4GMo0w9fSaEJae0NU-2" target="Bub4GMo0w9fSaEJae0NU-21" edge="1">
                    <mxGeometry relative="1" as="geometry">
                        <mxPoint x="342.92456782654085" y="547" as="sourcePoint"/>
                    </mxGeometry>
                </mxCell>
                <mxCell id="Bub4GMo0w9fSaEJae0NU-17" value="" style="edgeStyle=none;rounded=0;orthogonalLoop=1;jettySize=auto;html=1;labelBackgroundColor=none;startArrow=none;startFill=0;endArrow=classic;endFill=1;" parent="Bub4GMo0w9fSaEJae0NU-1" source="Bub4GMo0w9fSaEJae0NU-21" target="Bub4GMo0w9fSaEJae0NU-22" edge="1">
                    <mxGeometry relative="1" as="geometry"/>
                </mxCell>
                <mxCell id="Bub4GMo0w9fSaEJae0NU-18" value="" style="edgeStyle=none;rounded=0;orthogonalLoop=1;jettySize=auto;html=1;labelBackgroundColor=none;startArrow=none;startFill=0;endArrow=classic;endFill=1;" parent="Bub4GMo0w9fSaEJae0NU-1" source="Bub4GMo0w9fSaEJae0NU-21" target="Bub4GMo0w9fSaEJae0NU-23" edge="1">
                    <mxGeometry relative="1" as="geometry"/>
                </mxCell>
                <mxCell id="Bub4GMo0w9fSaEJae0NU-19" value="" style="edgeStyle=none;rounded=0;orthogonalLoop=1;jettySize=auto;html=1;labelBackgroundColor=none;startArrow=none;startFill=0;endArrow=classic;endFill=1;" parent="Bub4GMo0w9fSaEJae0NU-1" source="Bub4GMo0w9fSaEJae0NU-21" target="Bub4GMo0w9fSaEJae0NU-25" edge="1">
                    <mxGeometry relative="1" as="geometry"/>
                </mxCell>
                <mxCell id="Bub4GMo0w9fSaEJae0NU-20" value="" style="edgeStyle=none;html=1;" parent="Bub4GMo0w9fSaEJae0NU-1" source="Bub4GMo0w9fSaEJae0NU-21" target="Bub4GMo0w9fSaEJae0NU-29" edge="1">
                    <mxGeometry relative="1" as="geometry"/>
                </mxCell>
                <mxCell id="Bub4GMo0w9fSaEJae0NU-21" value="date" style="ellipse;whiteSpace=wrap;html=1;aspect=fixed;labelPosition=center;verticalLabelPosition=bottom;align=center;verticalAlign=top;" parent="Bub4GMo0w9fSaEJae0NU-1" vertex="1">
                    <mxGeometry x="340" y="592" width="30" height="30" as="geometry"/>
                </mxCell>
                <mxCell id="Bub4GMo0w9fSaEJae0NU-22" value="day" style="ellipse;whiteSpace=wrap;html=1;aspect=fixed;labelPosition=center;verticalLabelPosition=bottom;align=center;verticalAlign=top;" parent="Bub4GMo0w9fSaEJae0NU-1" vertex="1">
                    <mxGeometry x="230" y="632" width="30" height="30" as="geometry"/>
                </mxCell>
                <mxCell id="Bub4GMo0w9fSaEJae0NU-23" value="week" style="ellipse;whiteSpace=wrap;html=1;aspect=fixed;labelPosition=center;verticalLabelPosition=bottom;align=center;verticalAlign=top;" parent="Bub4GMo0w9fSaEJae0NU-1" vertex="1">
                    <mxGeometry x="435" y="622" width="30" height="30" as="geometry"/>
                </mxCell>
                <mxCell id="Bub4GMo0w9fSaEJae0NU-24" value="" style="edgeStyle=none;rounded=0;orthogonalLoop=1;jettySize=auto;html=1;labelBackgroundColor=none;startArrow=none;startFill=0;endArrow=classic;endFill=1;" parent="Bub4GMo0w9fSaEJae0NU-1" source="Bub4GMo0w9fSaEJae0NU-25" target="Bub4GMo0w9fSaEJae0NU-27" edge="1">
                    <mxGeometry relative="1" as="geometry"/>
                </mxCell>
                <mxCell id="Bub4GMo0w9fSaEJae0NU-25" value="month" style="ellipse;whiteSpace=wrap;html=1;aspect=fixed;labelPosition=center;verticalLabelPosition=bottom;align=center;verticalAlign=top;" parent="Bub4GMo0w9fSaEJae0NU-1" vertex="1">
                    <mxGeometry x="375" y="662" width="30" height="30" as="geometry"/>
                </mxCell>
                <mxCell id="Bub4GMo0w9fSaEJae0NU-26" value="" style="edgeStyle=none;rounded=0;orthogonalLoop=1;jettySize=auto;html=1;labelBackgroundColor=none;startArrow=none;startFill=0;endArrow=classic;endFill=1;" parent="Bub4GMo0w9fSaEJae0NU-1" source="Bub4GMo0w9fSaEJae0NU-27" target="Bub4GMo0w9fSaEJae0NU-28" edge="1">
                    <mxGeometry relative="1" as="geometry"/>
                </mxCell>
                <mxCell id="Bub4GMo0w9fSaEJae0NU-27" value="quarter" style="ellipse;whiteSpace=wrap;html=1;aspect=fixed;labelPosition=center;verticalLabelPosition=bottom;align=center;verticalAlign=top;" parent="Bub4GMo0w9fSaEJae0NU-1" vertex="1">
                    <mxGeometry x="375" y="742" width="30" height="30" as="geometry"/>
                </mxCell>
                <mxCell id="Bub4GMo0w9fSaEJae0NU-28" value="year" style="ellipse;whiteSpace=wrap;html=1;aspect=fixed;labelPosition=center;verticalLabelPosition=bottom;align=center;verticalAlign=top;" parent="Bub4GMo0w9fSaEJae0NU-1" vertex="1">
                    <mxGeometry x="375" y="812" width="30" height="30" as="geometry"/>
                </mxCell>
                <mxCell id="Bub4GMo0w9fSaEJae0NU-29" value="holiday" style="ellipse;whiteSpace=wrap;html=1;aspect=fixed;labelPosition=center;verticalLabelPosition=bottom;align=center;verticalAlign=top;" parent="Bub4GMo0w9fSaEJae0NU-1" vertex="1">
                    <mxGeometry x="285" y="667" width="30" height="30" as="geometry"/>
                </mxCell>
                <mxCell id="Bub4GMo0w9fSaEJae0NU-30" style="rounded=0;orthogonalLoop=1;jettySize=auto;html=1;" parent="Bub4GMo0w9fSaEJae0NU-1" source="Bub4GMo0w9fSaEJae0NU-2" target="Bub4GMo0w9fSaEJae0NU-44" edge="1">
                    <mxGeometry relative="1" as="geometry">
                        <mxPoint x="365" y="552" as="sourcePoint"/>
                        <mxPoint x="602" y="518" as="targetPoint"/>
                    </mxGeometry>
                </mxCell>
                <mxCell id="Bub4GMo0w9fSaEJae0NU-44" value="order_id" style="shape=sumEllipse;perimeter=ellipsePerimeter;whiteSpace=wrap;html=1;backgroundOutline=1;labelPosition=center;verticalLabelPosition=bottom;align=center;verticalAlign=top;" parent="Bub4GMo0w9fSaEJae0NU-1" vertex="1">
                    <mxGeometry x="458" y="511" width="30" height="30" as="geometry"/>
                </mxCell>
                <mxCell id="Bub4GMo0w9fSaEJae0NU-45" value="" style="rounded=0;orthogonalLoop=1;jettySize=auto;html=1;" parent="Bub4GMo0w9fSaEJae0NU-1" source="Bub4GMo0w9fSaEJae0NU-48" target="Bub4GMo0w9fSaEJae0NU-49" edge="1">
                    <mxGeometry relative="1" as="geometry"/>
                </mxCell>
                <mxCell id="Bub4GMo0w9fSaEJae0NU-46" style="edgeStyle=none;rounded=0;orthogonalLoop=1;jettySize=auto;html=1;" parent="Bub4GMo0w9fSaEJae0NU-1" source="Bub4GMo0w9fSaEJae0NU-48" target="Bub4GMo0w9fSaEJae0NU-50" edge="1">
                    <mxGeometry relative="1" as="geometry">
                        <mxPoint x="538.9141945536496" y="233.63407100992208" as="targetPoint"/>
                    </mxGeometry>
                </mxCell>
                <mxCell id="Bub4GMo0w9fSaEJae0NU-47" style="edgeStyle=none;html=1;" parent="Bub4GMo0w9fSaEJae0NU-1" source="Bub4GMo0w9fSaEJae0NU-48" target="Bub4GMo0w9fSaEJae0NU-51" edge="1">
                    <mxGeometry relative="1" as="geometry">
                        <mxPoint x="442" y="279" as="targetPoint"/>
                    </mxGeometry>
                </mxCell>
                <mxCell id="Bub4GMo0w9fSaEJae0NU-48" value="product" style="ellipse;whiteSpace=wrap;html=1;aspect=fixed;labelPosition=center;verticalLabelPosition=bottom;align=center;verticalAlign=top;" parent="Bub4GMo0w9fSaEJae0NU-1" vertex="1">
                    <mxGeometry x="452" y="331" width="30" height="30" as="geometry"/>
                </mxCell>
                <mxCell id="Bub4GMo0w9fSaEJae0NU-49" value="category" style="ellipse;whiteSpace=wrap;html=1;aspect=fixed;labelPosition=center;verticalLabelPosition=bottom;align=center;verticalAlign=top;" parent="Bub4GMo0w9fSaEJae0NU-1" vertex="1">
                    <mxGeometry x="522" y="339" width="30" height="30" as="geometry"/>
                </mxCell>
                <mxCell id="Bub4GMo0w9fSaEJae0NU-50" value="description" style="text;html=1;strokeColor=none;fillColor=none;align=center;verticalAlign=middle;whiteSpace=wrap;rounded=0;labelPosition=center;verticalLabelPosition=middle;" parent="Bub4GMo0w9fSaEJae0NU-1" vertex="1">
                    <mxGeometry x="507" y="279" width="60" height="30" as="geometry"/>
                </mxCell>
                <mxCell id="Bub4GMo0w9fSaEJae0NU-51" value="name" style="ellipse;whiteSpace=wrap;html=1;aspect=fixed;labelPosition=center;verticalLabelPosition=bottom;align=center;verticalAlign=top;" parent="Bub4GMo0w9fSaEJae0NU-1" vertex="1">
                    <mxGeometry x="472" y="239" width="30" height="30" as="geometry"/>
                </mxCell>
                <mxCell id="Bub4GMo0w9fSaEJae0NU-52" style="rounded=0;orthogonalLoop=1;jettySize=auto;html=1;" parent="Bub4GMo0w9fSaEJae0NU-1" source="Bub4GMo0w9fSaEJae0NU-2" target="Bub4GMo0w9fSaEJae0NU-48" edge="1">
                    <mxGeometry relative="1" as="geometry">
                        <mxPoint x="397.3522610420764" y="492" as="sourcePoint"/>
                        <mxPoint x="435.2989482475632" y="544.7815017944502" as="targetPoint"/>
                    </mxGeometry>
                </mxCell>
                <mxCell id="bH0DVYdY_Y9yZxofrT8l-0" style="edgeStyle=none;html=1;fontColor=#FFFF33;" parent="Bub4GMo0w9fSaEJae0NU-1" source="Bub4GMo0w9fSaEJae0NU-2" target="bH0DVYdY_Y9yZxofrT8l-6" edge="1">
                    <mxGeometry relative="1" as="geometry">
                        <mxPoint x="490" y="498.4477931553497" as="sourcePoint"/>
                    </mxGeometry>
                </mxCell>
                <mxCell id="bH0DVYdY_Y9yZxofrT8l-1" value="" style="edgeStyle=none;html=1;fontColor=#FFFF33;" parent="Bub4GMo0w9fSaEJae0NU-1" source="bH0DVYdY_Y9yZxofrT8l-6" target="bH0DVYdY_Y9yZxofrT8l-7" edge="1">
                    <mxGeometry relative="1" as="geometry">
                        <mxPoint x="588.9550623364642" y="434.2668516238259" as="targetPoint"/>
                    </mxGeometry>
                </mxCell>
                <mxCell id="bH0DVYdY_Y9yZxofrT8l-2" value="" style="edgeStyle=none;html=1;fontColor=#FFFF33;" parent="Bub4GMo0w9fSaEJae0NU-1" source="bH0DVYdY_Y9yZxofrT8l-6" target="bH0DVYdY_Y9yZxofrT8l-7" edge="1">
                    <mxGeometry relative="1" as="geometry"/>
                </mxCell>
                <mxCell id="bH0DVYdY_Y9yZxofrT8l-4" value="" style="edgeStyle=none;html=1;fontColor=#FFFF33;" parent="Bub4GMo0w9fSaEJae0NU-1" source="bH0DVYdY_Y9yZxofrT8l-6" target="bH0DVYdY_Y9yZxofrT8l-9" edge="1">
                    <mxGeometry relative="1" as="geometry"/>
                </mxCell>
                <mxCell id="bH0DVYdY_Y9yZxofrT8l-5" value="" style="edgeStyle=none;html=1;fontColor=#FFFF33;" parent="Bub4GMo0w9fSaEJae0NU-1" source="bH0DVYdY_Y9yZxofrT8l-6" target="bH0DVYdY_Y9yZxofrT8l-10" edge="1">
                    <mxGeometry relative="1" as="geometry"/>
                </mxCell>
                <mxCell id="bH0DVYdY_Y9yZxofrT8l-6" value="employee" style="ellipse;whiteSpace=wrap;html=1;aspect=fixed;labelPosition=center;verticalLabelPosition=bottom;align=center;verticalAlign=top;" parent="Bub4GMo0w9fSaEJae0NU-1" vertex="1">
                    <mxGeometry x="488" y="443" width="30" height="30" as="geometry"/>
                </mxCell>
                <mxCell id="bH0DVYdY_Y9yZxofrT8l-7" value="name" style="text;html=1;strokeColor=none;fillColor=none;align=center;verticalAlign=middle;whiteSpace=wrap;rounded=0;labelBackgroundColor=none;" parent="Bub4GMo0w9fSaEJae0NU-1" vertex="1">
                    <mxGeometry x="583" y="431" width="60" height="30" as="geometry"/>
                </mxCell>
                <mxCell id="bH0DVYdY_Y9yZxofrT8l-9" value="hire date" style="ellipse;whiteSpace=wrap;html=1;aspect=fixed;labelPosition=center;verticalLabelPosition=bottom;align=center;verticalAlign=top;" parent="Bub4GMo0w9fSaEJae0NU-1" vertex="1">
                    <mxGeometry x="528" y="534" width="30" height="30" as="geometry"/>
                </mxCell>
                <mxCell id="bH0DVYdY_Y9yZxofrT8l-10" value="manager" style="ellipse;whiteSpace=wrap;html=1;aspect=fixed;labelPosition=center;verticalLabelPosition=bottom;align=center;verticalAlign=top;" parent="Bub4GMo0w9fSaEJae0NU-1" vertex="1">
                    <mxGeometry x="578" y="494" width="30" height="30" as="geometry"/>
                </mxCell>
                <mxCell id="FAEzO1ZAxMXkahkgNoq0-0" value="" style="edgeStyle=none;rounded=0;orthogonalLoop=1;jettySize=auto;html=1;" parent="Bub4GMo0w9fSaEJae0NU-1" source="FAEzO1ZAxMXkahkgNoq0-3" target="FAEzO1ZAxMXkahkgNoq0-6" edge="1">
                    <mxGeometry relative="1" as="geometry"/>
                </mxCell>
                <mxCell id="FAEzO1ZAxMXkahkgNoq0-1" value="" style="edgeStyle=none;html=1;fontColor=#FFFFFF;" parent="Bub4GMo0w9fSaEJae0NU-1" source="FAEzO1ZAxMXkahkgNoq0-3" target="FAEzO1ZAxMXkahkgNoq0-13" edge="1">
                    <mxGeometry relative="1" as="geometry"/>
                </mxCell>
                <mxCell id="FAEzO1ZAxMXkahkgNoq0-2" value="" style="rounded=0;orthogonalLoop=1;jettySize=auto;html=1;fontColor=#000000;" parent="Bub4GMo0w9fSaEJae0NU-1" source="FAEzO1ZAxMXkahkgNoq0-3" target="FAEzO1ZAxMXkahkgNoq0-15" edge="1">
                    <mxGeometry relative="1" as="geometry"/>
                </mxCell>
                <mxCell id="FAEzO1ZAxMXkahkgNoq0-3" value="warehouse" style="ellipse;whiteSpace=wrap;html=1;aspect=fixed;labelPosition=center;verticalLabelPosition=bottom;align=center;verticalAlign=top;" parent="Bub4GMo0w9fSaEJae0NU-1" vertex="1">
                    <mxGeometry x="282" y="323" width="30" height="30" as="geometry"/>
                </mxCell>
                <mxCell id="FAEzO1ZAxMXkahkgNoq0-4" style="rounded=0;orthogonalLoop=1;jettySize=auto;html=1;" parent="Bub4GMo0w9fSaEJae0NU-1" source="Bub4GMo0w9fSaEJae0NU-2" target="FAEzO1ZAxMXkahkgNoq0-3" edge="1">
                    <mxGeometry relative="1" as="geometry">
                        <mxPoint x="294.0169491525421" y="361" as="sourcePoint"/>
                        <mxPoint x="575" y="281" as="targetPoint"/>
                    </mxGeometry>
                </mxCell>
                <mxCell id="FAEzO1ZAxMXkahkgNoq0-5" value="" style="edgeStyle=none;rounded=0;orthogonalLoop=1;jettySize=auto;html=1;" parent="Bub4GMo0w9fSaEJae0NU-1" source="FAEzO1ZAxMXkahkgNoq0-6" target="FAEzO1ZAxMXkahkgNoq0-8" edge="1">
                    <mxGeometry relative="1" as="geometry"/>
                </mxCell>
                <mxCell id="FAEzO1ZAxMXkahkgNoq0-6" value="city" style="ellipse;whiteSpace=wrap;html=1;aspect=fixed;labelPosition=center;verticalLabelPosition=bottom;align=center;verticalAlign=top;" parent="Bub4GMo0w9fSaEJae0NU-1" vertex="1">
                    <mxGeometry x="282" y="253" width="30" height="30" as="geometry"/>
                </mxCell>
                <mxCell id="FAEzO1ZAxMXkahkgNoq0-7" value="" style="edgeStyle=orthogonalEdgeStyle;rounded=0;orthogonalLoop=1;jettySize=auto;html=1;" parent="Bub4GMo0w9fSaEJae0NU-1" source="FAEzO1ZAxMXkahkgNoq0-8" target="FAEzO1ZAxMXkahkgNoq0-11" edge="1">
                    <mxGeometry relative="1" as="geometry"/>
                </mxCell>
                <mxCell id="FAEzO1ZAxMXkahkgNoq0-8" value="state" style="ellipse;whiteSpace=wrap;html=1;aspect=fixed;labelPosition=center;verticalLabelPosition=bottom;align=center;verticalAlign=top;" parent="Bub4GMo0w9fSaEJae0NU-1" vertex="1">
                    <mxGeometry x="282" y="173" width="30" height="30" as="geometry"/>
                </mxCell>
                <mxCell id="FAEzO1ZAxMXkahkgNoq0-9" value="" style="edgeStyle=orthogonalEdgeStyle;rounded=0;orthogonalLoop=1;jettySize=auto;html=1;endArrow=none;endFill=0;" parent="Bub4GMo0w9fSaEJae0NU-1" source="FAEzO1ZAxMXkahkgNoq0-11" target="FAEzO1ZAxMXkahkgNoq0-8" edge="1">
                    <mxGeometry relative="1" as="geometry"/>
                </mxCell>
                <mxCell id="FAEzO1ZAxMXkahkgNoq0-10" value="" style="edgeStyle=orthogonalEdgeStyle;rounded=0;orthogonalLoop=1;jettySize=auto;html=1;" parent="Bub4GMo0w9fSaEJae0NU-1" source="FAEzO1ZAxMXkahkgNoq0-11" target="FAEzO1ZAxMXkahkgNoq0-12" edge="1">
                    <mxGeometry relative="1" as="geometry"/>
                </mxCell>
                <mxCell id="FAEzO1ZAxMXkahkgNoq0-11" value="country" style="ellipse;whiteSpace=wrap;html=1;aspect=fixed;labelPosition=center;verticalLabelPosition=bottom;align=center;verticalAlign=top;" parent="Bub4GMo0w9fSaEJae0NU-1" vertex="1">
                    <mxGeometry x="282" y="93" width="30" height="30" as="geometry"/>
                </mxCell>
                <mxCell id="FAEzO1ZAxMXkahkgNoq0-12" value="region" style="ellipse;whiteSpace=wrap;html=1;aspect=fixed;labelPosition=center;verticalLabelPosition=bottom;align=center;verticalAlign=top;" parent="Bub4GMo0w9fSaEJae0NU-1" vertex="1">
                    <mxGeometry x="282" y="23" width="30" height="30" as="geometry"/>
                </mxCell>
                <mxCell id="FAEzO1ZAxMXkahkgNoq0-13" value="name" style="ellipse;whiteSpace=wrap;html=1;aspect=fixed;labelPosition=center;verticalLabelPosition=bottom;align=center;verticalAlign=top;" parent="Bub4GMo0w9fSaEJae0NU-1" vertex="1">
                    <mxGeometry x="347" y="274" width="30" height="30" as="geometry"/>
                </mxCell>
                <mxCell id="FAEzO1ZAxMXkahkgNoq0-14" style="edgeStyle=none;rounded=0;orthogonalLoop=1;jettySize=auto;html=1;fontColor=#000000;" parent="Bub4GMo0w9fSaEJae0NU-1" source="FAEzO1ZAxMXkahkgNoq0-15" target="FAEzO1ZAxMXkahkgNoq0-8" edge="1">
                    <mxGeometry relative="1" as="geometry"/>
                </mxCell>
                <mxCell id="FAEzO1ZAxMXkahkgNoq0-15" value="postal_code" style="ellipse;whiteSpace=wrap;html=1;aspect=fixed;labelPosition=center;verticalLabelPosition=bottom;align=center;verticalAlign=top;" parent="Bub4GMo0w9fSaEJae0NU-1" vertex="1">
                    <mxGeometry x="197" y="274" width="30" height="30" as="geometry"/>
                </mxCell>
                <mxCell id="fs503FM_zpK9mRkdbAuu-1" value="last_status" style="shape=sumEllipse;perimeter=ellipsePerimeter;whiteSpace=wrap;html=1;backgroundOutline=1;labelPosition=center;verticalLabelPosition=bottom;align=center;verticalAlign=top;" parent="Bub4GMo0w9fSaEJae0NU-1" vertex="1">
                    <mxGeometry x="255" y="524" width="30" height="30" as="geometry"/>
                </mxCell>
                <mxCell id="3FKiI6OIz2s4AbCFEVYI-1" style="rounded=0;orthogonalLoop=1;jettySize=auto;html=1;" parent="Bub4GMo0w9fSaEJae0NU-1" source="Bub4GMo0w9fSaEJae0NU-2" target="3FKiI6OIz2s4AbCFEVYI-2" edge="1">
                    <mxGeometry relative="1" as="geometry">
                        <mxPoint x="365.99945653165184" y="534" as="sourcePoint"/>
                        <mxPoint x="558.36" y="549" as="targetPoint"/>
                    </mxGeometry>
                </mxCell>
                <mxCell id="3FKiI6OIz2s4AbCFEVYI-2" value="&lt;span style=&quot;text-align: left;&quot;&gt;was_received&lt;/span&gt;" style="shape=sumEllipse;perimeter=ellipsePerimeter;whiteSpace=wrap;html=1;backgroundOutline=1;labelPosition=center;verticalLabelPosition=bottom;align=center;verticalAlign=top;" parent="Bub4GMo0w9fSaEJae0NU-1" vertex="1">
                    <mxGeometry x="399" y="534" width="30" height="30" as="geometry"/>
                </mxCell>
            </root>
        </mxGraphModel>
    </diagram>
</mxfile>